<?xml version="1.0" encoding="UTF-8"?>
<svg version="1.1" xmlns="http://www.w3.org/2000/svg" width="656" height="524">
<path d="M0 0 C216.48 0 432.96 0 656 0 C656 172.92 656 345.84 656 524 C439.52 524 223.04 524 0 524 C0 351.08 0 178.16 0 0 Z " fill="#1C030B" transform="translate(0,0)"/>
<path d="M0 0 C4.67244796 0.31149653 6.84084654 1.76510287 10.4375 4.5625 C13.79475315 8.87896833 13.9796955 13.81126706 13.875 19.08203125 C13.85953125 20.37560547 13.8440625 21.66917969 13.828125 23.00195312 C13.79095189 25.02911023 13.75012844 27.05617198 13.70898438 29.08325195 C13.41989287 40.33777143 13.41989287 40.33777143 15.75 51.25 C17.66892143 52.39338287 17.66892143 52.39338287 19.75 53.25 C20.513125 53.91 21.27625 54.57 22.0625 55.25 C28.63553482 60.1415608 37.09063973 60.07427627 44.94921875 58.9296875 C47.98149781 57.78518304 49.06130493 54.89562228 50.75 52.25 C51.41 52.25 52.07 52.25 52.75 52.25 C52.8428125 51.1053125 52.8428125 51.1053125 52.9375 49.9375 C53.75 47.25 53.75 47.25 56 45.4375 C58.96657881 44.15647733 60.57885708 43.58239096 63.75 44.25 C67.03780309 48.34989834 67.17907133 52.19546712 67.0625 57.25 C67.06572266 57.94867188 67.06894531 58.64734375 67.07226562 59.3671875 C67.02982857 63.45657599 66.47311275 66.55668664 64.75 70.25 C64.46125 71.405 64.1725 72.56 63.875 73.75 C62.69372649 77.42507315 61.20750338 79.33171474 58.75 82.25 C58.37875 83.425625 58.37875 83.425625 58 84.625 C55.97343215 88.88079249 52.37167869 91.33270976 48.75 94.25 C48.03199219 94.85328125 47.31398438 95.4565625 46.57421875 96.078125 C39.06274619 102.215385 32.03613101 106.90101525 22.07421875 106.62109375 C16.856532 105.78801771 13.58020822 103.55811588 9.6875 100.0625 C8.43259766 98.95841797 8.43259766 98.95841797 7.15234375 97.83203125 C0.9265866 91.14060771 0.35349244 86.78615371 0.54492188 77.765625 C0.59197266 76.48171875 0.63902344 75.1978125 0.6875 73.875 C1.01496515 64.19767172 0.9888725 56.41928094 -3.5625 47.75 C-5.92061514 45.65389766 -8.18290406 45.68046961 -11.25 45.25 C-11.2593457 46.05630859 -11.26869141 46.86261719 -11.27832031 47.69335938 C-11.3323104 51.37950585 -11.41590448 55.06442241 -11.5 58.75 C-11.51417969 60.0184375 -11.52835937 61.286875 -11.54296875 62.59375 C-11.77233587 71.40144755 -12.69228655 77.11536005 -18.5625 83.9375 C-27.4482661 91.58339176 -34.35577363 94.05744095 -46.25 93.25 C-49.02211077 92.75831063 -51.5527386 92.07992659 -54.25 91.25 C-54.25 90.59 -54.25 89.93 -54.25 89.25 C-53.53714844 88.88648438 -52.82429688 88.52296875 -52.08984375 88.1484375 C-43.92470421 83.86256345 -37.89233035 79.56413194 -32.25 72.25 C-31.26 71.755 -31.26 71.755 -30.25 71.25 C-29.56264581 69.59175803 -28.89934351 67.92349192 -28.25 66.25 C-27.29542117 64.61839651 -26.29494699 63.01275759 -25.25 61.4375 C-24.734375 60.64730469 -24.21875 59.85710937 -23.6875 59.04296875 C-23.213125 58.45128906 -22.73875 57.85960937 -22.25 57.25 C-21.59 57.25 -20.93 57.25 -20.25 57.25 C-20.13398438 56.51523438 -20.01796875 55.78046875 -19.8984375 55.0234375 C-19.24443109 52.22618116 -18.33731526 50.32991714 -16.875 47.875 C-9.9996688 35.803657 -7.98365424 23.51071359 -7.65625 9.74609375 C-7.04338762 4.47194155 -5.51464463 0.42420343 0 0 Z " fill="#F13974" transform="translate(387.25,115.75)"/>
<path d="M0 0 C-0.43119141 0.84498047 -0.43119141 0.84498047 -0.87109375 1.70703125 C-2.00535316 4.01087303 -3.06104143 6.32283926 -4.0625 8.6875 C-4.57490234 9.86892578 -4.57490234 9.86892578 -5.09765625 11.07421875 C-7.74279705 19.65088741 -7.18306261 28.93327315 -7.1875 37.8125 C-7.19974609 39.12154297 -7.21199219 40.43058594 -7.22460938 41.77929688 C-7.22654297 43.03419922 -7.22847656 44.28910156 -7.23046875 45.58203125 C-7.23457764 46.71874268 -7.23868652 47.8554541 -7.24291992 49.02661133 C-7.00227574 51.97214449 -6.43063634 53.47562676 -5 56 C-4.62294585 57.84223739 -4.24934807 59.6854187 -3.90966797 61.53491211 C-1.81777489 72.52670072 2.95696477 83.95696477 11 92 C12.33348175 95.60040071 12.27592332 99.20605434 12 103 C10.59089331 105.11366004 9.58835165 105.76886185 7.25 106.6875 C2.15035515 107.39578401 -2.43730818 107.5896359 -7 105 C-10.22727238 101.68550404 -11 100.73899834 -11 96 C-11.88945312 95.66548828 -11.88945312 95.66548828 -12.796875 95.32421875 C-15.6655349 93.59997104 -16.60309192 91.71057854 -18.25 88.8125 C-22.07556331 82.54351238 -26.94406884 76.68857484 -34 74 C-41.38721165 73.38136651 -49.02372278 73.31681645 -56 76 C-57.40854666 77.81701858 -57.40854666 77.81701858 -58 80 C-58.515625 80.639375 -59.03125 81.27875 -59.5625 81.9375 C-62.8977312 86.72283172 -62.3181562 93.17373863 -62.60546875 98.82421875 C-62.89676339 103.89676339 -62.89676339 103.89676339 -64 105 C-67.15747443 105.48995293 -68.9728466 105.75813256 -72 105 C-74.80606828 102.66991174 -76.87492063 99.94821137 -79 97 C-79.5053125 96.37738281 -80.010625 95.75476563 -80.53125 95.11328125 C-88.17274015 84.1184776 -88.60994844 70.31923693 -86.61621094 57.54003906 C-84.7502802 47.81304731 -82.11172265 39.30737429 -74 33 C-67.88842181 29.04544941 -61.05401169 29.24600825 -54 30 C-47.71471273 31.60145676 -42.4267856 34.24930326 -38 39 C-37.06158945 40.92056058 -36.3556657 42.79449526 -35.73828125 44.83984375 C-33.75133232 50.65350915 -31.28317948 54.02499819 -26.4375 57.8125 C-24.98150391 58.96685547 -24.98150391 58.96685547 -23.49609375 60.14453125 C-19.94963456 62.78078808 -18.23910156 63.11845002 -13.875 63.0625 C-12.96492188 63.05347656 -12.05484375 63.04445313 -11.1171875 63.03515625 C-10.41851562 63.02355469 -9.71984375 63.01195312 -9 63 C-10.13355422 55.94677376 -12.81856824 51.90036352 -18 47 C-18.66 46.67 -19.32 46.34 -20 46 C-20.8515625 43.71484375 -20.8515625 43.71484375 -21.625 40.9375 C-21.88539063 40.01839844 -22.14578125 39.09929687 -22.4140625 38.15234375 C-22.60742188 37.44207031 -22.80078125 36.73179687 -23 36 C-23.66 36 -24.32 36 -25 36 C-25.08112454 33.41603321 -25.14054748 30.83462432 -25.1875 28.25 C-25.21263672 27.52039063 -25.23777344 26.79078125 -25.26367188 26.0390625 C-25.32352684 21.64969856 -25.03490455 19.22024223 -22 16 C-21.62875 14.8553125 -21.62875 14.8553125 -21.25 13.6875 C-18.66114796 8.12146811 -13.47906398 3.66549058 -8 1 C-5.07063657 0.02354552 -3.20826995 0 0 0 Z " fill="#F0336F" transform="translate(318,209)"/>
<path d="M0 0 C1.07894531 0.70189453 1.07894531 0.70189453 2.1796875 1.41796875 C7.77317646 5.28961858 7.77317646 5.28961858 8.7109375 8.2265625 C9.06692174 11.64208697 9.20849419 15.00289441 9.25 18.4375 C9.27578125 19.71496094 9.3015625 20.99242187 9.328125 22.30859375 C8.58463397 30.67286779 3.4698252 34.69520173 -2.40625 40.12109375 C-5.36179282 43.40156823 -6.45133628 45.90710302 -8 50 C-8.53625 50.9075 -9.0725 51.815 -9.625 52.75 C-11.58986557 57.3942277 -11.74208897 62.00186214 -12 67 C-7.32406544 68.15948004 -7.32406544 68.15948004 -2.91015625 66.84765625 C-0.62056628 64.63298129 0.17385554 62.71461611 1.3125 59.75 C4.90410031 51.39538512 10.42121798 46.46504322 18.6875 42.8125 C26.50388838 40.89527266 34.73596998 41.39605311 42 45 C45.60111453 47.75078023 48.81908295 50.77822714 52 54 C52.58910156 54.5465625 53.17820312 55.093125 53.78515625 55.65625 C55 57 55 57 55 59 C54.28682617 58.96334229 53.57365234 58.92668457 52.83886719 58.88891602 C36.36764324 58.15788978 23.04262144 59.11247865 8 66 C7.33693848 66.2882666 6.67387695 66.5765332 5.99072266 66.87353516 C-9.21888302 73.51533533 -22.41947659 84.22134817 -32.59375 97.3203125 C-35 100 -35 100 -37.09765625 100.76171875 C-40.67371845 100.62663887 -42.68960372 100.24831702 -45.5 98 C-47.42692067 94.14615866 -47.587979 91.22826073 -47 87 C-46.125 84.4375 -46.125 84.4375 -45 82 C-44.79375 80.9275 -44.5875 79.855 -44.375 78.75 C-42.15671615 72.70013494 -37.63566736 68.41188428 -32.9296875 64.10546875 C-27.68428206 58.38224298 -27.47589005 52.86103817 -27.6484375 45.41796875 C-28.37936419 38.31173707 -31.53005135 33.55829054 -37 29 C-41.50363867 26.16074953 -44.70560703 25.46158716 -50 26 C-52.31354504 26.70377069 -54.57657126 27.50506661 -56.8515625 28.32421875 C-59.67182905 29.21132077 -62.07196356 29.35707761 -65 29 C-67 27 -67 27 -67.3125 23.75 C-66.5960564 15.15267678 -60.61651662 9.74337565 -54.49951172 4.25390625 C-39.91664706 -7.94042668 -15.99517223 -10.62882657 0 0 Z " fill="#F03772" transform="translate(265,141)"/>
<path d="M0 0 C6.23630889 0.08249086 11.38890425 1.91680764 17.0625 4.375 C17.0625 5.035 17.0625 5.695 17.0625 6.375 C17.76246094 6.59671875 18.46242188 6.8184375 19.18359375 7.046875 C22.72837061 8.6821859 25.31079973 10.98425359 28.125 13.625 C28.64126953 14.09035156 29.15753906 14.55570313 29.68945312 15.03515625 C37.9377231 22.66349256 42.79176472 33.34145081 43.4140625 44.58203125 C43.6498954 56.67421922 43.6498954 56.67421922 40.3125 60.25 C39.57 60.95125 38.8275 61.6525 38.0625 62.375 C37.27875 63.220625 36.495 64.06625 35.6875 64.9375 C32.14256397 68.22922632 28.97665827 70.375 24.0625 70.375 C24.0625 71.035 24.0625 71.695 24.0625 72.375 C17.60322577 72.80245197 12.80514249 72.7420503 7.12890625 69.53125 C-1.86943702 64.49626019 -10.7705854 63.33533929 -20.9375 64.375 C-23.28773558 65.28268874 -23.28773558 65.28268874 -24.9375 66.375 C-25.35496608 69.24864791 -25.35496608 69.24864791 -24.9375 72.375 C-22.03564935 75.08339394 -19.03789155 75.59382981 -15.25 76.25 C-6.16541668 77.91033246 1.94100027 82.41674851 8.0625 89.375 C12.272572 96.61106125 11.70683662 105.22456012 11.0625 113.375 C10.04296875 116.8671875 10.04296875 116.8671875 9.0625 119.375 C8.4025 119.375 7.7425 119.375 7.0625 119.375 C6.4025 121.685 5.7425 123.995 5.0625 126.375 C3.7425 126.375 2.4225 126.375 1.0625 126.375 C0.99933594 125.27542969 0.93617188 124.17585938 0.87109375 123.04296875 C0.11914926 113.05479047 -1.59887056 106.39459195 -7.9375 98.375 C-8.74157413 97.28497346 -9.54219802 96.19239565 -10.33984375 95.09765625 C-20.21298736 81.70634152 -31.44629976 71.29707246 -46.34765625 63.8203125 C-48.9375 62.375 -48.9375 62.375 -49.9375 60.375 C-51.66324889 59.68585867 -53.41947005 59.07200969 -55.1875 58.5 C-63.34482977 55.59348718 -63.34482977 55.59348718 -65.9375 52.375 C-66.73558022 48.09833101 -66.39254859 45.05757289 -63.9375 41.375 C-55.51347044 36.73318779 -48.1541402 38.05563195 -39.125 40.42578125 C-38.403125 40.73902344 -37.68125 41.05226562 -36.9375 41.375 C-36.6075 42.365 -36.2775 43.355 -35.9375 44.375 C-28.31979352 46.87045557 -19.88962709 47.26174798 -11.9375 46.375 C-10.15466819 45.12867963 -10.15466819 45.12867963 -8.9375 43.375 C-7.76212612 42.29910097 -6.57434897 41.23660655 -5.375 40.1875 C-4.77558594 39.65769531 -4.17617188 39.12789062 -3.55859375 38.58203125 C-1.9375 37.375 -1.9375 37.375 0.0625 37.375 C2.58375491 30.73265774 2.88943796 24.40814913 2.0625 17.375 C0.73195617 14.52307737 -0.47995315 13.49742683 -2.9375 11.375 C-6.86670354 7.87057522 -6.86670354 7.87057522 -7.3125 4.75 C-6.58545786 0.14539975 -4.11493037 0.05903774 0 0 Z " fill="#EE3A73" transform="translate(325.9375,71.625)"/>
<path d="M0 0 C2.61836104 1.22301365 4.35125295 2.30841722 6.5625 4.25 C23.39703567 18.45283406 49.62958416 22.66437621 71 21 C76.71954463 20.29275722 82.3553634 19.1468468 88 18 C92.71460111 17.06872077 95.96866679 16.583848 100.5625 18.4375 C103 21 103 21 103.625 24.875 C103.22873705 29.24197945 102.04588424 31.74161221 99 35 C92.28912917 39.9526722 85.06121718 42.01922498 77.01489258 43.61962891 C69.44128229 45.1486358 63.23915836 48.23163373 58 54 C53.94308819 61.19774676 54.7180331 68.97960812 55 77 C55.99 77.33 56.98 77.66 58 78 C58.598125 79.093125 59.19625 80.18625 59.8125 81.3125 C63.1234734 86.33037273 68.35619886 86.88871199 73.91796875 88.17578125 C77 89 77 89 79 91 C79.5 93.3125 79.5 93.3125 79 96 C73.42571744 102.52987386 64.76665647 104.47332702 56.5 105.38671875 C42.64248243 105.83523215 29.39094161 101.23983771 18.8359375 92.1328125 C17.15921678 90.47036174 15.57606278 88.75706719 14 87 C13.236875 86.319375 12.47375 85.63875 11.6875 84.9375 C7.04497085 79.60718875 7.46303358 72.32090828 7.5546875 65.63671875 C8.20737763 60.30641603 10.22203377 57.63964253 14 54 C14.49113281 53.42636719 14.98226563 52.85273438 15.48828125 52.26171875 C18.92254874 48.38312554 21.80132412 46.95309058 27 46 C28.56245157 45.91576348 30.1249559 45.83250233 31.6875 45.75 C38.22404208 45.19200251 43.3951493 42.23084661 49 39 C49.76441406 38.58363281 50.52882813 38.16726562 51.31640625 37.73828125 C53.50933905 36.49413306 53.50933905 36.49413306 56 34 C56.66830771 30.3299671 56.66830771 30.3299671 56 27 C54.44969882 25.44969882 52.96323999 25.75594901 50.8125 25.6875 C46.11599895 25.7172718 43.77041575 27.17218818 40 30 C32.32856189 32.1241901 21.10629356 32.55725671 13.71875 29.1875 C10.19624176 26.75376703 7.31603269 23.58985066 5 20 C5 19.01 5 18.02 5 17 C4.360625 16.896875 3.72125 16.79375 3.0625 16.6875 C2.381875 16.460625 1.70125 16.23375 1 16 C-0.14077657 12.57767028 -0.09815117 9.91326783 -0.0625 6.3125 C-0.05347656 5.13300781 -0.04445313 3.95351562 -0.03515625 2.73828125 C-0.02355469 1.83464844 -0.01195312 0.93101562 0 0 Z " fill="#F23371" transform="translate(327,215)"/>
<path d="M0 0 C0.66 0 1.32 0 2 0 C2 172.92 2 345.84 2 524 C-214.48 524 -430.96 524 -654 524 C-654 523.01 -654 522.02 -654 521 C-438.18 521 -222.36 521 0 521 C0 349.07 0 177.14 0 0 Z " fill="#DBDADA" transform="translate(654,0)"/>
<path d="M0 0 C6.2798435 5.14542016 8.86550762 9.27054292 9.859375 17.2421875 C10.42073287 27.13611987 7.2329368 33.59799593 1.109375 41.171875 C-7.71161451 48.10265248 -16.4046609 49.01642388 -27.3515625 47.9609375 C-32.97064818 47.06660855 -35.77930811 45.7399336 -39.515625 41.234375 C-40.50175781 40.56341797 -40.50175781 40.56341797 -41.5078125 39.87890625 C-46.09622161 36.12069567 -47.26678989 29.5668623 -47.87109375 23.90234375 C-48.07361235 15.61836863 -47.07448055 9.83060442 -42.203125 2.984375 C-31.02388063 -8.4548518 -12.93031619 -9.07531509 0 0 Z " fill="#E06187" transform="translate(338.515625,358.765625)"/>
<path d="M0 0 C5.94 0 11.88 0 18 0 C18 17.82 18 35.64 18 54 C12.06 54 6.12 54 0 54 C0 46.74 0 39.48 0 32 C-7.92 32.495 -7.92 32.495 -16 33 C-16.33 39.6 -16.66 46.2 -17 53 C-22.28 53 -27.56 53 -33 53 C-33 35.84 -33 18.68 -33 1 C-27.06 1 -21.12 1 -15 1 C-15 7.6 -15 14.2 -15 21 C-10.05 21 -5.1 21 0 21 C0 14.07 0 7.14 0 0 Z " fill="#DD6085" transform="translate(488,353)"/>
<path d="M0 0 C4.764375 -0.103125 9.52875 -0.20625 14.4375 -0.3125 C15.9217749 -0.35802002 17.4060498 -0.40354004 18.93530273 -0.45043945 C26.82666749 -0.53285718 32.70891772 -0.03892907 39 5 C42.56715543 8.65415922 43.27821708 11.54012743 43.5 16.5 C43.23049634 22.53524854 41.60778279 25.5183078 37.22265625 29.69140625 C30.48780848 35.09684273 24.39348384 34.48894081 16 34 C16 39.94 16 45.88 16 52 C10.72 52 5.44 52 0 52 C0 34.84 0 17.68 0 0 Z " fill="#E26289" transform="translate(217,354)"/>
<path d="M0 0 C11.88 0 23.76 0 36 0 C36 3.63 36 7.26 36 11 C30.06 11 24.12 11 18 11 C18.33 13.97 18.66 16.94 19 20 C24.28 20.33 29.56 20.66 35 21 C35 23.97 35 26.94 35 30 C29.39 30 23.78 30 18 30 C18.33 33.3 18.66 36.6 19 40 C24.61 40.33 30.22 40.66 36 41 C36 44.63 36 48.26 36 52 C24.12 52 12.24 52 0 52 C0 34.84 0 17.68 0 0 Z " fill="#E4638A" transform="translate(145,354)"/>
<path d="M0 0 C0 3.96 0 7.92 0 12 C-1.87945312 11.89558594 -1.87945312 11.89558594 -3.796875 11.7890625 C-5.44786302 11.73277882 -7.09890907 11.67817931 -8.75 11.625 C-9.575 11.57472656 -10.4 11.52445312 -11.25 11.47265625 C-13.63094588 11.41505272 -15.67917099 11.459429 -18 12 C-21.79884276 15.89789234 -22.55048971 19.21690148 -22.5 24.5625 C-22.5103125 25.65691406 -22.520625 26.75132812 -22.53125 27.87890625 C-21.86032917 31.82056611 -21.07112991 33.41529129 -18 36 C-15.05530516 36.59365228 -12.23828181 36.47355996 -9.25 36.3125 C-8.45722656 36.28994141 -7.66445313 36.26738281 -6.84765625 36.24414062 C-4.8976238 36.18540471 -2.94856688 36.09572654 -1 36 C0.23886292 40.14092371 1.26311551 43.65859407 1 48 C-6.95474022 51.74340716 -15.89497315 52.64668193 -24.375 49.875 C-28.57435701 47.9782316 -31.78166385 45.25584589 -35 42 C-35.58394531 41.48179687 -36.16789062 40.96359375 -36.76953125 40.4296875 C-41.12435273 35.88109177 -41.55665492 31.54965892 -41.5625 25.5 C-41.33801749 16.74330373 -39.83734086 10.19234488 -33.74609375 3.5390625 C-24.7683665 -4.3741915 -10.34849813 -5.77590593 0 0 Z " fill="#DD6085" transform="translate(420,356)"/>
<path d="M0 0 C0.66 0.33 1.32 0.66 2 1 C3.99960012 1.039992 6.00047242 1.04346799 8 1 C8 1.33 8 1.66 8 2 C6.35 2 4.7 2 3 2 C2.9906543 2.80630859 2.98130859 3.61261719 2.97167969 4.44335938 C2.9176896 8.12950585 2.83409552 11.81442241 2.75 15.5 C2.73582031 16.7684375 2.72164063 18.036875 2.70703125 19.34375 C2.47766413 28.15144755 1.55771345 33.86536005 -4.3125 40.6875 C-13.1982661 48.33339176 -20.10577363 50.80744095 -32 50 C-34.77211077 49.50831063 -37.3027386 48.82992659 -40 48 C-40 47.34 -40 46.68 -40 46 C-39.28714844 45.63648438 -38.57429688 45.27296875 -37.83984375 44.8984375 C-29.67470421 40.61256345 -23.64233035 36.31413194 -18 29 C-17.34 28.67 -16.68 28.34 -16 28 C-15.31264581 26.34175803 -14.64934351 24.67349192 -14 23 C-13.04542117 21.36839651 -12.04494699 19.76275759 -11 18.1875 C-10.484375 17.39730469 -9.96875 16.60710937 -9.4375 15.79296875 C-8.963125 15.20128906 -8.48875 14.60960937 -8 14 C-7.34 14 -6.68 14 -6 14 C-5.88785156 13.27425781 -5.77570313 12.54851562 -5.66015625 11.80078125 C-4.97038613 8.87436007 -3.94489186 6.77712191 -2.4375 4.1875 C-1.75494141 3.00220703 -1.75494141 3.00220703 -1.05859375 1.79296875 C-0.53458984 0.90544922 -0.53458984 0.90544922 0 0 Z " fill="#CD2257" transform="translate(373,159)"/>
<path d="M0 0 C3.61362877 2.6153432 5.84095826 6.24544302 7.7109375 10.23828125 C8.46281823 15.87738671 7.17329739 19.5444604 4.5234375 24.42578125 C1.0652998 27.88391895 -3.26792267 28.16905143 -7.9765625 28.48828125 C-11.13623361 28.24981551 -12.74580338 28.0548949 -15.2890625 26.23828125 C-16.29549198 24.90979434 -17.29598429 23.57677796 -18.2890625 22.23828125 C-19.2790625 21.90828125 -20.2690625 21.57828125 -21.2890625 21.23828125 C-24.01228825 16.79512345 -24.3273754 11.25809474 -23.2890625 6.23828125 C-20.99577668 2.75123022 -18.28588036 -0.10380766 -14.26171875 -1.4296875 C-9.2849069 -2.2673687 -4.63004395 -2.21026985 0 0 Z " fill="#F23471" transform="translate(428.2890625,142.76171875)"/>
<path d="M0 0 C0.33 0.99 0.66 1.98 1 3 C1.61875 3.309375 2.2375 3.61875 2.875 3.9375 C5.51761357 5.25880678 6.43295561 6.50131552 8 9 C9.19696852 13.80937651 9.79266946 18.34260023 7.625 22.875 C1.92629782 27.4882351 -3.42970413 30.94013948 -10.9921875 30.4921875 C-14.37326794 29.66336233 -15.92660473 27.68321741 -18 25 C-18.5259375 24.40316406 -19.051875 23.80632812 -19.59375 23.19140625 C-22.35334604 18.89103575 -21.8995375 13.8804694 -21 9 C-18.61699019 5.12176835 -15.46661442 2.88768768 -11.625 0.5625 C-7.74797266 -0.26829157 -3.94819554 -0.1548312 0 0 Z " fill="#F23873" transform="translate(314,84)"/>
<path d="M0 0 C3.125 1.8125 3.125 1.8125 6 4 C6.763125 4.515625 7.52625 5.03125 8.3125 5.5625 C10 7 10 7 11 10 C11.38758119 15.81371788 11.12512587 19.88615767 8 25 C4.08772246 28.60215798 0.12482977 31.34726602 -5.3125 31.5 C-10.19132882 30.83846389 -11.91092933 30.21353589 -15.1875 26.5625 C-18.6955793 21.60280168 -18.2544111 17.10551159 -17.77734375 11.25 C-16.69777844 6.73644052 -14.64438187 4.88252818 -11.0078125 2.171875 C-7.28776319 0.00063999 -4.24250453 -0.41593182 0 0 Z " fill="#F02D6B" transform="translate(405,265)"/>
<path d="M0 0 C3.86117122 2.44976081 6.70334497 4.41055711 8.36328125 8.7890625 C8.55897393 12.50722351 8.54318364 15.24935532 7.36328125 18.7890625 C6.05127721 20.14338925 4.71696721 21.47639732 3.36328125 22.7890625 C2.70328125 23.7790625 2.04328125 24.7690625 1.36328125 25.7890625 C-3.46258432 27.39768436 -8.36035433 27.26551087 -13.32421875 26.2265625 C-17.67734884 23.52056272 -21.01642238 19.64995162 -22.63671875 14.7890625 C-22.88491483 10.32153302 -23.03760445 6.65135689 -20.63671875 2.7890625 C-14.52988566 -2.0184444 -7.23680681 -3.32357054 0 0 Z " fill="#F12C6B" transform="translate(283.63671875,288.2109375)"/>
<path d="M0 0 C5.59560739 0.33456546 9.3981065 2.70055008 13.1875 6.75 C15.9540652 11.17650433 15.93674653 15.68690979 15.1875 20.75 C13.94461673 23.78540814 12.50587355 26.4133235 10.1875 28.75 C8.015625 29.46484375 8.015625 29.46484375 6.1875 29.75 C6.1875 30.41 6.1875 31.07 6.1875 31.75 C-0.90123325 32.23887815 -4.0786134 30.95047423 -9.5625 26.25 C-12.81637397 22.34535124 -13.19148064 18.85538452 -13.0625 13.921875 C-12.71115932 10.86960286 -11.7006894 9.15906924 -9.8125 6.75 C-9.131875 5.656875 -8.45125 4.56375 -7.75 3.4375 C-4.65527579 0.60615658 -3.97509991 0.24996794 0 0 Z " fill="#F1316F" transform="translate(217.8125,172.25)"/>
<path d="M0 0 C6.16470892 4.02473035 6.16470892 4.02473035 7.515625 6.7265625 C7.94975027 15.55377632 7.94975027 15.55377632 5.515625 19.7265625 C1.26710601 23.75147523 -1.38385104 24.65413064 -7.109375 24.8515625 C-10.484375 24.7265625 -10.484375 24.7265625 -12.484375 23.7265625 C-12.484375 23.0665625 -12.484375 22.4065625 -12.484375 21.7265625 C-13.268125 21.4584375 -14.051875 21.1903125 -14.859375 20.9140625 C-17.484375 19.7265625 -17.484375 19.7265625 -19.484375 16.7265625 C-20.14538098 12.68398909 -20.40365845 8.52484207 -18.50390625 4.80859375 C-13.66533601 -1.22100916 -7.14432362 -3.66202751 0 0 Z " fill="#25050F" transform="translate(417.484375,189.2734375)"/>
<path d="M0 0 C0 0.66 0 1.32 0 2 C0.78375 2.226875 1.5675 2.45375 2.375 2.6875 C5 4 5 4 6.3125 6 C7.30666451 10.33817243 7.15484087 14.56983055 7 19 C6.34 19 5.68 19 5 19 C4.7525 19.78375 4.505 20.5675 4.25 21.375 C2.78655948 24.44822509 2.10184493 24.82042517 -1 26 C-3.359375 26.1953125 -3.359375 26.1953125 -5.75 26.125 C-6.54921875 26.10695312 -7.3484375 26.08890625 -8.171875 26.0703125 C-8.77515625 26.04710937 -9.3784375 26.02390625 -10 26 C-10 25.34 -10 24.68 -10 24 C-10.86625 23.690625 -10.86625 23.690625 -11.75 23.375 C-14.95643167 21.41551398 -16.25198581 19.30874115 -18 16 C-18.47404865 11.49653782 -18.25059535 7.96533466 -16 4 C-11.59519365 -1.25734951 -6.31486337 -0.39813499 0 0 Z " fill="#270510" transform="translate(353,109)"/>
<path d="M0 0 C3.23345967 1.23032213 5.22531202 3.01403348 7.375 5.75 C9.14804404 12.13295856 8.09157937 16.70958981 5.16796875 22.43359375 C4 24 4 24 1 25 C-9.58361436 26.05534616 -9.58361436 26.05534616 -14.1875 22.625 C-17.70213154 17.53484398 -17.68516584 13.08293572 -17 7 C-14.44851412 -1.37116714 -7.69651825 -1.32267634 0 0 Z " fill="#26050F" transform="translate(258,145)"/>
<path d="M0 0 C0.721875 0.7425 1.44375 1.485 2.1875 2.25 C3.0846875 3.11625 3.0846875 3.11625 4 4 C5.78946533 7.39056588 5.8123963 10.55555815 5.1875 14.25 C4.14486557 17.04105215 2.9924542 18.79325678 1.1875 21.25 C-1.0625 22.1875 -1.0625 22.1875 -2.8125 22.25 C-2.8125 22.91 -2.8125 23.57 -2.8125 24.25 C-7.82345441 24.76132188 -11.58909895 24.86913671 -15.8125 21.875 C-19.68118687 18.48989899 -19.68118687 18.48989899 -20.015625 15.33203125 C-20.12954363 9.81647093 -19.40533501 6.13649675 -16.8125 1.25 C-12.43557227 -3.12692773 -5.08540379 -3.16425125 0 0 Z " fill="#24040E" transform="translate(362.8125,274.75)"/>
<path d="M0 0 C3.92670595 2.11438013 6.63262715 4.23125126 9 8 C9.79828193 12.03132375 9.90440654 16.17629956 8.05078125 19.9140625 C4.49517094 24.46793564 1.0953819 25.73331503 -4.4375 26.4375 C-9.22048092 25.85011638 -10.66254597 24.41691722 -14 21 C-15.56765192 16.29704424 -15.93802522 11.88724732 -15 7 C-11.30969806 1.53947709 -6.65323946 -1.35528952 0 0 Z " fill="#21040D" transform="translate(261,246)"/>
<path d="M0 0 C4.15940286 0.37741274 6.8517141 2.01184508 10.0625 4.6875 C12.9081159 8.95592385 12.56254005 12.6792864 12.0625 17.6875 C10.41961661 22.35674752 8.34512574 25.15685752 4.0625 27.6875 C0.64973632 28.30800249 -1.55796942 28.353063 -4.71875 26.828125 C-7.90295538 24.39491145 -8.82112501 22.38325618 -9.484375 18.41796875 C-9.68974999 13.06110436 -9.75775604 8.0193437 -6.9375 3.3125 C-3.9375 0.6875 -3.9375 0.6875 0 0 Z " fill="#250711" transform="translate(317.9375,366.3125)"/>
<path d="M0 0 C3.60111453 2.75078023 6.81908295 5.77822714 10 9 C10.58910156 9.5465625 11.17820312 10.093125 11.78515625 10.65625 C13 12 13 12 13 14 C5.41 13.67 -2.18 13.34 -10 13 C-10 12.67 -10 12.34 -10 12 C-3.73 11.67 2.54 11.34 9 11 C5.00992304 7.00992304 -0.50263796 5.53895706 -6 5 C-7.07701172 4.88591797 -7.07701172 4.88591797 -8.17578125 4.76953125 C-15.55516704 4.3340651 -21.66936614 6.21665285 -28 10 C-30.74898099 12.46633929 -33.22108613 15.0111073 -35.6484375 17.79296875 C-38.31494127 20.29558442 -40.49138996 21.0950415 -44 22 C-43.60167969 21.22076172 -43.60167969 21.22076172 -43.1953125 20.42578125 C-42.84210938 19.72839844 -42.48890625 19.03101563 -42.125 18.3125 C-41.75246094 17.57773438 -41.37992187 16.84296875 -40.99609375 16.0859375 C-39.92337557 13.96293716 -39.92337557 13.96293716 -39.1875 11.4375 C-36.00430143 4.90356609 -29.78618282 0.6729645 -23.3125 -2.1875 C-15.49611162 -4.10472734 -7.26403002 -3.60394689 0 0 Z " fill="#CD2156" transform="translate(307,186)"/>
<path d="M0 0 C-0.433125 0.8353125 -0.433125 0.8353125 -0.875 1.6875 C-2.0413253 4.08494645 -3.0339881 6.51596939 -4 9 C-5.24546405 6.50907189 -4.7767578 5.58919267 -4 3 C-9.9040876 7.45672632 -14.35475702 11.60158031 -16 19 C-16.23971831 21.74160597 -16.40223715 24.38236861 -16.4375 27.125 C-16.4478125 27.79394287 -16.458125 28.46288574 -16.46875 29.15209961 C-16.35463038 35.5816306 -13.8998286 40.51141582 -10.8125 46 C-8.81908736 49.88071206 -8.64028799 52.68345586 -9 57 C-11.56095968 54.51017809 -13.96205687 52.04769994 -16.1875 49.25 C-17.80309077 46.92512612 -17.80309077 46.92512612 -20 46 C-20.8515625 43.71484375 -20.8515625 43.71484375 -21.625 40.9375 C-21.88539063 40.01839844 -22.14578125 39.09929687 -22.4140625 38.15234375 C-22.60742188 37.44207031 -22.80078125 36.73179687 -23 36 C-23.66 36 -24.32 36 -25 36 C-25.08112454 33.41603321 -25.14054748 30.83462432 -25.1875 28.25 C-25.21263672 27.52039063 -25.23777344 26.79078125 -25.26367188 26.0390625 C-25.32352684 21.64969856 -25.03490455 19.22024223 -22 16 C-21.7525 15.236875 -21.505 14.47375 -21.25 13.6875 C-18.66114796 8.12146811 -13.47906398 3.66549058 -8 1 C-5.07063657 0.02354552 -3.20826995 0 0 0 Z " fill="#DA245C" transform="translate(318,209)"/>
<path d="M0 0 C3.875 1.75 3.875 1.75 5 4 C4.34 4 3.68 4 3 4 C3.433125 5.051875 3.86625 6.10375 4.3125 7.1875 C4.55613281 7.77917969 4.79976563 8.37085938 5.05078125 8.98046875 C7.30116659 13.76832562 9.23427534 16.56994625 13.875 19.25 C14.71804688 19.75015625 15.56109375 20.2503125 16.4296875 20.765625 C23.9342133 24.36962219 32.52607224 23.16454378 40.5625 22.375 C46.19534457 21.88779899 50.58338632 22.4392808 56 24 C56 24.99 56 25.98 56 27 C55.67 26.67 55.34 26.34 55 26 C48.66710977 25.18672357 45.16486072 26.12635446 40 30 C32.32856189 32.1241901 21.10629356 32.55725671 13.71875 29.1875 C10.19624176 26.75376703 7.31603269 23.58985066 5 20 C5 19.01 5 18.02 5 17 C4.360625 16.896875 3.72125 16.79375 3.0625 16.6875 C2.381875 16.460625 1.70125 16.23375 1 16 C-0.14077657 12.57767028 -0.09815117 9.91326783 -0.0625 6.3125 C-0.05347656 5.13300781 -0.04445313 3.95351562 -0.03515625 2.73828125 C-0.02355469 1.83464844 -0.01195312 0.93101562 0 0 Z " fill="#D7235B" transform="translate(327,215)"/>
<path d="M0 0 C8.48723289 1.43339933 14.27101903 4.34199509 20 11 C21.81651588 14.29152677 23 17.18222962 23 21 C23.66 21 24.32 21 25 21 C25.0809723 23.43816585 25.14046972 25.87364384 25.1875 28.3125 C25.21263672 29.00279297 25.23777344 29.69308594 25.26367188 30.40429688 C25.33834499 35.55674183 25.33834499 35.55674183 23.48828125 37.98046875 C22.99714844 38.31691406 22.50601562 38.65335938 22 39 C21.566875 37.824375 21.13375 36.64875 20.6875 35.4375 C20.12617788 33.95788594 19.5636935 32.47871225 19 31 C18.5875 29.906875 18.175 28.81375 17.75 27.6875 C13.89124448 18.91579288 7.92309784 11.42971485 1.72265625 4.21484375 C0 2 0 2 0 0 Z " fill="#E55D87" transform="translate(307,154)"/>
<path d="M0 0 C0.60438989 8.00816606 -1.15678898 16.13574516 -6.4375 22.4375 C-11.76759179 27.12852466 -20.32061389 29.22146169 -27.3125 29.25 C-28.199375 29.1675 -29.08625 29.085 -30 29 C-30 28.01 -30 27.02 -30 26 C-27.83984375 24.45703125 -27.83984375 24.45703125 -24.9375 22.8125 C-20.16078076 19.92553953 -16.78659774 16.96688907 -13.33984375 12.6015625 C-12 11 -12 11 -10 10 C-9.773125 9.2575 -9.54625 8.515 -9.3125 7.75 C-7.84771111 4.68091852 -3.82906391 0 0 0 Z " fill="#DF5781" transform="translate(367,177)"/>
<path d="M0 0 C0.66 0.99 1.32 1.98 2 3 C0.16501953 3.00386719 0.16501953 3.00386719 -1.70703125 3.0078125 C-12.96587525 3.20711397 -22.46873735 4.91312298 -33.05859375 8.72265625 C-36.14594985 9.81295398 -38.69012135 10.30927296 -42 10 C-41.38511719 9.31164062 -41.38511719 9.31164062 -40.7578125 8.609375 C-40.21898437 7.99578125 -39.68015625 7.3821875 -39.125 6.75 C-38.59132813 6.14671875 -38.05765625 5.5434375 -37.5078125 4.921875 C-35.92786373 3.07355062 -35.92786373 3.07355062 -35.0859375 0.90625 C-33.22318927 -2.36361021 -30.19660934 -2.9946771 -26.79296875 -4.2421875 C-17.36089139 -6.80138052 -8.54757139 -4.18998598 0 0 Z " fill="#E65884" transform="translate(315,195)"/>
<path d="M0 0 C3.97615035 0.65625782 6.85606692 2.65049721 10.25 4.75 C17.78900839 9.25843424 25.57718591 11.67749623 34 14 C34.99 14.33 35.98 14.66 37 15 C37 15.99 37 16.98 37 18 C29.41780524 21.19250306 21.70959723 20.86853704 14.09765625 17.96875 C7.51849493 14.93032913 2.91496164 10.75680048 0 4 C0 2.68 0 1.36 0 0 Z " fill="#E95483" transform="translate(330,219)"/>
<path d="M0 0 C1.98 0 3.96 0 6 0 C6.26554687 0.63808594 6.53109375 1.27617187 6.8046875 1.93359375 C7.15789062 2.75988281 7.51109375 3.58617187 7.875 4.4375 C8.39707031 5.67306641 8.39707031 5.67306641 8.9296875 6.93359375 C9.8244937 9.15746715 9.8244937 9.15746715 12 10 C12.12375 9.0925 12.2475 8.185 12.375 7.25 C12.92109677 4.41029677 13.57263803 2.47409409 15 0 C16.98 0 18.96 0 21 0 C21 5.94 21 11.88 21 18 C19.35 18 17.7 18 16 18 C15.67 16.02 15.34 14.04 15 12 C14.01 13.98 13.02 15.96 12 18 C11.01 18 10.02 18 9 18 C8.01 15.36 7.02 12.72 6 10 C5.67 12.64 5.34 15.28 5 18 C3.35 18 1.7 18 0 18 C0 12.06 0 6.12 0 0 Z " fill="#D22C67" transform="translate(434,424)"/>
<path d="M0 0 C1.65 0 3.3 0 5 0 C5.433125 1.134375 5.86625 2.26875 6.3125 3.4375 C7.1478125 5.2009375 7.1478125 5.2009375 8 7 C8.99 7.33 9.98 7.66 11 8 C12.07525194 5.34771188 13.09456151 2.71631546 14 0 C15.98 0 17.96 0 20 0 C20 5.94 20 11.88 20 18 C18.68 18 17.36 18 16 18 C15.67 16.35 15.34 14.7 15 13 C12.7763932 14.9254644 12.7763932 14.9254644 12 18 C10.68 18 9.36 18 8 18 C6.50178941 14.62902617 6 12.79557881 6 9 C5.34 9 4.68 9 4 9 C4 11.97 4 14.94 4 18 C2.68 18 1.36 18 0 18 C0 12.06 0 6.12 0 0 Z " fill="#D42C68" transform="translate(262,424)"/>
<path d="M0 0 C-0.38309565 4.29067123 -0.74417319 7.41905995 -2.5 11.40625 C-4.82061137 17.38609909 -4.57044379 23.66558703 -4.6875 30 C-4.72166016 31.25167969 -4.75582031 32.50335938 -4.79101562 33.79296875 C-4.87300969 36.86188957 -4.94232019 39.93054206 -5 43 C-11.36691814 35.14746762 -12.7430758 28.99647261 -12 19 C-10.95673002 11.48654185 -9.32640059 6.26255537 -3.62109375 1.109375 C-2 0 -2 0 0 0 Z " fill="#EB5685" transform="translate(314,212)"/>
<path d="M0 0 C5 0 5 0 6.58203125 1.53125 C6.98808594 2.1809375 7.39414062 2.830625 7.8125 3.5 C8.23144531 4.1496875 8.65039062 4.799375 9.08203125 5.46875 C9.38496094 5.9740625 9.68789063 6.479375 10 7 C10.33 4.69 10.66 2.38 11 0 C12.65 0 14.3 0 16 0 C16 5.94 16 11.88 16 18 C11 17 11 17 8.6875 14.0625 C7 11 7 11 7 9 C6.34 9 5.68 9 5 9 C5 11.97 5 14.94 5 18 C3.35 18 1.7 18 0 18 C0 12.06 0 6.12 0 0 Z " fill="#D32C67" transform="translate(492,424)"/>
<path d="M0 0 C5 1 5 1 7.3125 3.9375 C9 7 9 7 9 9 C9.66 9 10.32 9 11 9 C11 6.03 11 3.06 11 0 C12.65 0 14.3 0 16 0 C16 5.94 16 11.88 16 18 C11 17 11 17 9.48828125 15.40625 C9.10027344 14.7771875 8.71226562 14.148125 8.3125 13.5 C6.64721813 10.72985049 6.64721813 10.72985049 4 9 C4 11.97 4 14.94 4 18 C2.68 18 1.36 18 0 18 C0 12.06 0 6.12 0 0 Z " fill="#BF275D" transform="translate(192,424)"/>
<path d="M0 0 C5 1 5 1 7.3125 3.9375 C9 7 9 7 9 9 C9.66 9 10.32 9 11 9 C11 6.03 11 3.06 11 0 C12.32 0 13.64 0 15 0 C15 5.94 15 11.88 15 18 C13.68 18 12.36 18 11 18 C9.375 15.5625 9.375 15.5625 8 13 C7.34 12.67 6.68 12.34 6 12 C5.67 13.98 5.34 15.96 5 18 C3.35 18 1.7 18 0 18 C0 12.06 0 6.12 0 0 Z " fill="#BF285E" transform="translate(324,424)"/>
<path d="M0 0 C4.29 0 8.58 0 13 0 C13 1.32 13 2.64 13 4 C10.36 4 7.72 4 5 4 C5 4.99 5 5.98 5 7 C7.31 7 9.62 7 12 7 C12 8.32 12 9.64 12 11 C9.69 11 7.38 11 5 11 C5 11.99 5 12.98 5 14 C7.64 14 10.28 14 13 14 C13 15.65 13 17.3 13 19 C8.71 19 4.42 19 0 19 C0 12.73 0 6.46 0 0 Z " fill="#B72659" transform="translate(409,424)"/>
<path d="M0 0 C4.29 0 8.58 0 13 0 C13 1.32 13 2.64 13 4 C10.36 4 7.72 4 5 4 C5 4.99 5 5.98 5 7 C7.64 7 10.28 7 13 7 C12.67 8.65 12.34 10.3 12 12 C10.02 12 8.04 12 6 12 C6 12.66 6 13.32 6 14 C8.31 14 10.62 14 13 14 C13 15.32 13 16.64 13 18 C8.71 18 4.42 18 0 18 C0 12.06 0 6.12 0 0 Z " fill="#CA2A62" transform="translate(467,424)"/>
<path d="M0 0 C4.29 0 8.58 0 13 0 C13 1.32 13 2.64 13 4 C10.36 4 7.72 4 5 4 C5 4.99 5 5.98 5 7 C7.31 7 9.62 7 12 7 C12 8.32 12 9.64 12 11 C9.69 11 7.38 11 5 11 C5 11.99 5 12.98 5 14 C7.64 14 10.28 14 13 14 C13 15.65 13 17.3 13 19 C8.71 19 4.42 19 0 19 C0 12.73 0 6.46 0 0 Z " fill="#CA2A63" transform="translate(112,424)"/>
<path d="M0 0 C2.85889879 0.03592871 4.09785151 0.20293454 6.6875 1.5625 C8.1875 3.25 8.1875 3.25 8.1875 6.25 C4.8875 5.92 1.5875 5.59 -1.8125 5.25 C-1.8125 7.89 -1.8125 10.53 -1.8125 13.25 C1.1575 13.745 1.1575 13.745 4.1875 14.25 C4.1875 13.26 4.1875 12.27 4.1875 11.25 C3.1975 11.25 2.2075 11.25 1.1875 11.25 C1.1875 10.26 1.1875 9.27 1.1875 8.25 C3.8275 8.25 6.4675 8.25 9.1875 8.25 C8.70789967 14.60470441 8.70789967 14.60470441 6.625 17.1875 C2.91021629 18.80676469 0.2385756 18.63581672 -3.8125 18.25 C-5.91372281 16.69713326 -6.68642696 15.67609496 -7.4296875 13.1640625 C-7.87221411 9.2349626 -8.11932593 6.9194384 -6.4375 3.25 C-4.01055195 0.26298701 -4.01055195 0.26298701 0 0 Z " fill="#EA3273" transform="translate(387.8125,423.75)"/>
<path d="M0 0 C4.29 0 8.58 0 13 0 C13 1.32 13 2.64 13 4 C10.36 4 7.72 4 5 4 C5 4.99 5 5.98 5 7 C7.31 7 9.62 7 12 7 C12 8.65 12 10.3 12 12 C9.69 12 7.38 12 5 12 C5 12.66 5 13.32 5 14 C7.64 14 10.28 14 13 14 C13 15.32 13 16.64 13 18 C8.71 18 4.42 18 0 18 C0 12.06 0 6.12 0 0 Z " fill="#B62558" transform="translate(167,424)"/>
<path d="M0 0 C1.98 0 3.96 0 6 0 C6.84124316 2.24732102 7.67314832 4.49738785 8.5 6.75 C8.73847656 7.38421875 8.97695313 8.0184375 9.22265625 8.671875 C10.44801758 12.03286607 11 14.36871587 11 18 C9.68 18 8.36 18 7 18 C6.67 16.68 6.34 15.36 6 14 C4.02 14 2.04 14 0 14 C-0.33 15.32 -0.66 16.64 -1 18 C-2.65 18 -4.3 18 -6 18 C-4.41039668 11.76559832 -2.72399099 5.83712355 0 0 Z " fill="#E93272" transform="translate(300,424)"/>
<path d="M0 0 C1.98 0 3.96 0 6 0 C7.00399524 2.62353518 8.00334445 5.24867795 9 7.875 C9.28617187 8.62136719 9.57234375 9.36773437 9.8671875 10.13671875 C12 15.7734375 12 15.7734375 12 18 C10.35 18 8.7 18 7 18 C6.67 17.01 6.34 16.02 6 15 C3.03 14.505 3.03 14.505 0 14 C-0.33 15.32 -0.66 16.64 -1 18 C-2.65 18 -4.3 18 -6 18 C-4 12 -2 6 0 0 Z " fill="#E3306F" transform="translate(357,424)"/>
<path d="M0 0 C5.11631599 1.67603455 8.82987249 3.58103438 12 8 C12.80704105 12.29653285 12.72426144 15.76272005 10.5 19.5625 C10.005 20.036875 9.51 20.51125 9 21 C8.97421875 20.40832031 8.9484375 19.81664062 8.921875 19.20703125 C8.54554526 13.9640737 7.98840916 10.76050006 4 7 C0.50860713 4.47174999 -2.79521774 4.42003003 -7 5 C-8.81711819 6.42389216 -10.24973719 7.92571634 -11.73828125 9.6875 C-12.15464844 10.120625 -12.57101563 10.55375 -13 11 C-13.66 11 -14.32 11 -15 11 C-14.67373505 17.32278971 -14.38495108 22.55464391 -11 28 C-13.39963235 27.04014706 -14.73659972 26.42698572 -16.11328125 24.1953125 C-18.12821756 19.20679178 -17.5461349 14.29707038 -15.5 9.4375 C-15.005 8.633125 -14.51 7.82875 -14 7 C-13.34 7 -12.68 7 -12 7 C-11.9175 6.401875 -11.835 5.80375 -11.75 5.1875 C-9.81218883 -0.46444926 -5.33465944 -0.54250774 0 0 Z " fill="#D4235A" transform="translate(261,242)"/>
<path d="M0 0 C0.99 0.33 1.98 0.66 3 1 C2.01 2.485 2.01 2.485 1 4 C0.33192868 8.6531944 0.04546916 12.69547452 2.875 16.5625 C4.92623384 18.01759039 4.92623384 18.01759039 7 19 C7 19.66 7 20.32 7 21 C10.63 21 14.26 21 18 21 C17.34 21.99 16.68 22.98 16 24 C13.6171875 24.29296875 13.6171875 24.29296875 10.875 24.1875 C9.96492188 24.16042969 9.05484375 24.13335937 8.1171875 24.10546875 C7.41851562 24.07066406 6.71984375 24.03585938 6 24 C6 25.32 6 26.64 6 28 C10.29 28.33 14.58 28.66 19 29 C19 29.33 19 29.66 19 30 C17.43789839 30.05459773 15.87522911 30.09306101 14.3125 30.125 C13.00732422 30.15980469 13.00732422 30.15980469 11.67578125 30.1953125 C6.25255243 29.79945638 3.1042605 27.49946494 -0.8125 23.875 C-1.60269531 23.15054688 -2.39289063 22.42609375 -3.20703125 21.6796875 C-3.79871094 21.12539062 -4.39039063 20.57109375 -5 20 C-4.34 19.67 -3.68 19.34 -3 19 C-3.03480469 17.87980469 -3.06960938 16.75960937 -3.10546875 15.60546875 C-3.13360839 14.13282749 -3.16090837 12.66017002 -3.1875 11.1875 C-3.22520508 10.08051758 -3.22520508 10.08051758 -3.26367188 8.95117188 C-3.33834499 3.45025238 -3.33834499 3.45025238 -1.48828125 0.98828125 C-0.99714844 0.66214844 -0.50601562 0.33601562 0 0 Z " fill="#DE255F" transform="translate(398,192)"/>
<path d="M0 0 C1.65 0 3.3 0 5 0 C5.50615298 1.26839526 6.00469099 2.53983102 6.5 3.8125 C6.91765625 4.87404297 6.91765625 4.87404297 7.34375 5.95703125 C8 8 8 8 8 11 C8.66 11 9.32 11 10 11 C10.06058594 10.28972656 10.12117187 9.57945312 10.18359375 8.84765625 C10.26738281 7.92855469 10.35117188 7.00945312 10.4375 6.0625 C10.51871094 5.14597656 10.59992188 4.22945313 10.68359375 3.28515625 C11 1 11 1 12 0 C13.66617115 -0.04063832 15.33388095 -0.042721 17 0 C16.51030705 6.61085476 14.66557258 11.94977014 12 18 C10.02 18 8.04 18 6 18 C4.9936345 15.56495491 3.99473587 13.12729136 3 10.6875 C2.71382812 9.99720703 2.42765625 9.30691406 2.1328125 8.59570312 C0.91089256 5.58454326 0 3.28113016 0 0 Z " fill="#BA275A" transform="translate(137,424)"/>
<path d="M0 0 C2 2 2 2 2.265625 5.08203125 C2.26046875 6.31308594 2.2553125 7.54414062 2.25 8.8125 C2.25515625 10.03582031 2.2603125 11.25914063 2.265625 12.51953125 C1.93531687 16.84753921 1.34583801 19.64514968 -1.75 22.76171875 C-4.56750215 24.31232323 -6.79963711 24.57647324 -10 24.8125 C-11.03125 24.90144531 -12.0625 24.99039063 -13.125 25.08203125 C-17.39507312 24.96019492 -19.24751028 23.77398943 -22.1875 20.75 C-25.75284741 15.34050737 -25.12514652 9.2573262 -25 3 C-24.34 2.67 -23.68 2.34 -23 2 C-23.04640625 2.58007812 -23.0928125 3.16015625 -23.140625 3.7578125 C-23.40188883 9.41230827 -22.81677597 12.52891958 -19 17 C-18.01 17.66 -17.02 18.32 -16 19 C-16 19.66 -16 20.32 -16 21 C-14.05943567 20.798422 -12.12239852 20.56268261 -10.1875 20.3125 C-9.10855469 20.18488281 -8.02960938 20.05726563 -6.91796875 19.92578125 C-3.79099202 19.26391508 -3.79099202 19.26391508 -2.23828125 16.41796875 C-1.82964844 15.62003906 -1.42101562 14.82210937 -1 14 C-0.34 14 0.32 14 1 14 C0.67 9.38 0.34 4.76 0 0 Z " fill="#D4285E" transform="translate(359,114)"/>
<path d="M0 0 C2.31 0 4.62 0 7 0 C7 0.66 7 1.32 7 2 C7.639375 2.144375 8.27875 2.28875 8.9375 2.4375 C11 3 11 3 12 4 C12.375 6.8125 12.375 6.8125 12 10 C9.30172977 13.01571379 7.7945078 13.92360502 3.75 14.3125 C1 14 1 14 0 13 C-0.07258946 10.81360547 -0.08373783 8.62499611 -0.0625 6.4375 C-0.05347656 5.23996094 -0.04445312 4.04242188 -0.03515625 2.80859375 C-0.02355469 1.88175781 -0.01195312 0.95492188 0 0 Z " fill="#240710" transform="translate(233,364)"/>
<path d="M0 0 C5.28 0 10.56 0 16 0 C16 1.32 16 2.64 16 4 C14.35 4 12.7 4 11 4 C11 8.62 11 13.24 11 18 C9.35 18 7.7 18 6 18 C6 13.38 6 8.76 6 4 C4.35 4 2.7 4 1 4 C0.67 2.68 0.34 1.36 0 0 Z " fill="#AA2353" transform="translate(219,424)"/>
<path d="M0 0 C2.125 1.6875 2.125 1.6875 3.125 4.6875 C2.135 4.3575 1.145 4.0275 0.125 3.6875 C-6.69314008 3.24780991 -6.69314008 3.24780991 -12.875 5.6875 C-15.82869303 10.8564628 -16.48802467 15.80280623 -16.875 21.6875 C-17.535 21.3575 -18.195 21.0275 -18.875 20.6875 C-18.875 19.3675 -18.875 18.0475 -18.875 16.6875 C-19.535 16.6875 -20.195 16.6875 -20.875 16.6875 C-20.16262181 9.42124251 -17.68595581 5.09982529 -12.875 -0.3125 C-8.27817487 -1.84477504 -4.45352428 -2.03313065 0 0 Z " fill="#D22259" transform="translate(359.875,270.3125)"/>
<path d="M0 0 C1.98 0 3.96 0 6 0 C6 5.94 6 11.88 6 18 C4.68 18 3.36 18 2 18 C1.67 16.35 1.34 14.7 1 13 C0.34 13 -0.32 13 -1 13 C-1.33 12.01 -1.66 11.02 -2 10 C-2.99 10 -3.98 10 -5 10 C-5 9.34 -5 8.68 -5 8 C-4.34 8 -3.68 8 -3 8 C-1.92474806 5.34771188 -0.90543849 2.71631546 0 0 Z " fill="#BC275C" transform="translate(276,424)"/>
<path d="M0 0 C0.66 0.33 1.32 0.66 2 1 C3.99960012 1.039992 6.00047242 1.04346799 8 1 C8 1.33 8 1.66 8 2 C7.071875 2.185625 6.14375 2.37125 5.1875 2.5625 C1.75324018 3.73568871 1.75324018 3.73568871 0.25 7.0625 C-1.24400546 11.27367328 -2.10948658 15.62974925 -3 20 C-4.66739606 27.66739606 -4.66739606 27.66739606 -7 30 C-7 26.37 -7 22.74 -7 19 C-8.65 19.99 -10.3 20.98 -12 22 C-10.87548273 19.0280615 -9.77706209 16.66559313 -8 14 C-7.34 14 -6.68 14 -6 14 C-5.88785156 13.27425781 -5.77570313 12.54851562 -5.66015625 11.80078125 C-4.97038613 8.87436007 -3.94489186 6.77712191 -2.4375 4.1875 C-1.98246094 3.39730469 -1.52742188 2.60710937 -1.05859375 1.79296875 C-0.70925781 1.20128906 -0.35992187 0.60960937 0 0 Z " fill="#E3376C" transform="translate(373,159)"/>
<path d="M0 0 C5.65377957 1.47489902 5.65377957 1.47489902 7.171875 3.77734375 C8.87731237 8.35467331 8.87575778 13.53072418 7.2421875 18.13671875 C5.37311281 21.64675271 3.73996202 23.706383 0 25 C-3.234375 24.9765625 -3.234375 24.9765625 -6.75 24.625 C-7.92046875 24.51414063 -9.0909375 24.40328125 -10.296875 24.2890625 C-11.18890625 24.19367188 -12.0809375 24.09828125 -13 24 C-13 23.67 -13 23.34 -13 23 C-8.38 22.67 -3.76 22.34 1 22 C1.33 20.68 1.66 19.36 2 18 C2.350625 17.4225 2.70125 16.845 3.0625 16.25 C4.75499371 12.1880151 4.23835034 7.85913265 3.6875 3.5625 C3.3471875 2.7890625 3.3471875 2.7890625 3 2 C2.01 1.67 1.02 1.34 0 1 C0 0.67 0 0.34 0 0 Z " fill="#D8255D" transform="translate(261,147)"/>
<path d="M0 0 C2.9901118 3.04533814 3.36530423 5.53937651 3.36132812 9.74609375 C3.34521484 10.44863281 3.32910156 11.15117187 3.3125 11.875 C3.31572266 12.56980469 3.31894531 13.26460937 3.32226562 13.98046875 C3.27701409 18.34929835 2.59689716 21.94095462 1 26 C0.34 26 -0.32 26 -1 26 C-1.66 28.31 -2.32 30.62 -3 33 C-4.32 33 -5.64 33 -7 33 C-7.33 28.71 -7.66 24.42 -8 20 C-5.64046906 22.35953094 -5.50858587 23.77895617 -5 27 C-1.11748879 23.11748879 0.17233501 18.73659354 0.29296875 13.37890625 C0.27330671 11.773173 0.23794109 10.16756123 0.1875 8.5625 C0.17396484 7.73556641 0.16042969 6.90863281 0.14648438 6.05664062 C0.11146992 4.0374736 0.05767562 2.01864682 0 0 Z " fill="#991D42" transform="translate(334,165)"/>
<path d="M0 0 C1.98 0 3.96 0 6 0 C6 5.94 6 11.88 6 18 C4.68 18 3.36 18 2 18 C2 14.7 2 11.4 2 8 C1.01 8 0.02 8 -1 8 C-0.67 5.36 -0.34 2.72 0 0 Z " fill="#CA2A63" transform="translate(449,424)"/>
<path d="M0 0 C-1 3 -1 3 -4 5 C-4.72382467 7.05925139 -4.72382467 7.05925139 -5 9 C-4.34 9 -3.68 9 -3 9 C-3.03480469 9.88042969 -3.06960938 10.76085937 -3.10546875 11.66796875 C-3.13253906 12.82941406 -3.15960938 13.99085938 -3.1875 15.1875 C-3.23970703 16.91033203 -3.23970703 16.91033203 -3.29296875 18.66796875 C-2.97323588 22.30439725 -2.07812345 24.05293828 0 27 C0.33 27.66 0.66 28.32 1 29 C-1.34086928 28.06365229 -2.72114869 27.43819491 -4.09375 25.28125 C-5.17630672 22.55619343 -5.4163735 20.17077097 -5.625 17.25 C-5.69976562 16.26515625 -5.77453125 15.2803125 -5.8515625 14.265625 C-5.90054687 13.51796875 -5.94953125 12.7703125 -6 12 C-7.10514766 15.31544299 -7.32107631 18.20410111 -7.5625 21.6875 C-7.64628906 22.86699219 -7.73007812 24.04648437 -7.81640625 25.26171875 C-7.87699219 26.16535156 -7.93757813 27.06898438 -8 28 C-10.81421285 23.17081074 -10.60335963 18.44495273 -10 13 C-8.61489548 8.28778873 -5.82864667 0 0 0 Z " fill="#69122E" transform="translate(391,264)"/>
<path d="M0 0 C4.62 0 9.24 0 14 0 C14 0.66 14 1.32 14 2 C12.35 2 10.7 2 9 2 C9 6.95 9 11.9 9 17 C7.68 17 6.36 17 5 17 C5 12.05 5 7.1 5 2 C3.35 2 1.7 2 0 2 C0 1.34 0 0.68 0 0 Z " fill="#E83172" transform="translate(521,425)"/>
<path d="M0 0 C1.65 0 3.3 0 5 0 C5 0.99 5 1.98 5 3 C4.01 3 3.02 3 2 3 C1.67 5.97 1.34 8.94 1 12 C2.65 12 4.3 12 6 12 C6 12.33 6 12.66 6 13 C4.02 13 2.04 13 0 13 C-0.33 14.32 -0.66 15.64 -1 17 C-2.65 17 -4.3 17 -6 17 C-4.13236819 11.27789404 -2.14710968 5.62338249 0 0 Z " fill="#DE2F6D" transform="translate(357,425)"/>
<path d="M0 0 C5.61 0 11.22 0 17 0 C17 1.32 17 2.64 17 4 C15.35 4 13.7 4 12 4 C12 8.62 12 13.24 12 18 C11.67 18 11.34 18 11 18 C11 13.05 11 8.1 11 3 C12.65 3 14.3 3 16 3 C16 2.34 16 1.68 16 1 C11.38 1 6.76 1 2 1 C2 1.66 2 2.32 2 3 C3.65 3 5.3 3 7 3 C7 7.95 7 12.9 7 18 C6.34 18 5.68 18 5 18 C5 13.71 5 9.42 5 5 C3.35 4.67 1.7 4.34 0 4 C0 2.68 0 1.36 0 0 Z " fill="#6F1535" transform="translate(519,424)"/>
<path d="M0 0 C0.33 0.66 0.66 1.32 1 2 C0.34773438 1.77183594 -0.30453125 1.54367188 -0.9765625 1.30859375 C-7.9440361 -1.14836403 -7.9440361 -1.14836403 -15 0 C-18.5771333 2.46246651 -21.57647737 4.93445932 -22.4765625 9.32421875 C-22.51357583 13.05639645 -21.97438294 16.40290299 -21 20 C-21.66 20 -22.32 20 -23 20 C-25.51998382 15.27503033 -26.07749225 10.20922946 -25 5 C-22.70671418 1.51294897 -19.99681786 -1.34208891 -15.97265625 -2.66796875 C-9.76264102 -3.71321884 -5.4648873 -2.8417414 0 0 Z " fill="#9B2248" transform="translate(430,144)"/>
<path d="M0 0 C1.125 3.75 1.125 3.75 0 6 C-0.08711775 9.06242321 -0.1154846 12.10186465 -0.09765625 15.1640625 C-0.0962413 16.07127045 -0.09482635 16.97847839 -0.09336853 17.91317749 C-0.08776096 20.81715155 -0.07520718 23.72104915 -0.0625 26.625 C-0.05748598 28.59114472 -0.0529229 30.55729065 -0.04882812 32.5234375 C-0.03778906 37.3489879 -0.02051935 42.17448097 0 47 C-3.12156468 43.60760051 -3.3754044 41.23269791 -3.36328125 36.6875 C-3.36263672 35.44613281 -3.36199219 34.20476562 -3.36132812 32.92578125 C-3.34521484 31.63027344 -3.32910156 30.33476562 -3.3125 29 C-3.31572266 27.73542969 -3.31894531 26.47085938 -3.32226562 25.16796875 C-3.21614176 6.43228353 -3.21614176 6.43228353 0 0 Z " fill="#54182B" transform="translate(313,218)"/>
<path d="M0 0 C2.5 1.3125 2.5 1.3125 4 3 C4 3.99 4 4.98 4 6 C0.7 5.67 -2.6 5.34 -6 5 C-6.33 7.31 -6.66 9.62 -7 12 C-7.33 12 -7.66 12 -8 12 C-8.33 10.02 -8.66 8.04 -9 6 C-9.66 7.98 -10.32 9.96 -11 12 C-11.33 12 -11.66 12 -12 12 C-11.91253716 10.56138706 -11.80434652 9.12402492 -11.6875 7.6875 C-11.62949219 6.88699219 -11.57148438 6.08648437 -11.51171875 5.26171875 C-10.14739907 -0.76836595 -5.38431461 -0.81252233 0 0 Z " fill="#DF2F6D" transform="translate(392,424)"/>
<path d="M0 0 C0.66 0 1.32 0 2 0 C0.44499019 3.81684226 -2.03595495 6.19195732 -5 9 C-4.67 9.66 -4.34 10.32 -4 11 C-6.28929053 12.17154293 -8.58118362 13.33738074 -10.875 14.5 C-11.52597656 14.83386719 -12.17695313 15.16773438 -12.84765625 15.51171875 C-17.7734375 18 -17.7734375 18 -20 18 C-20 17.34 -20 16.68 -20 16 C-20.66 15.67 -21.32 15.34 -22 15 C-21.24976563 14.75507813 -20.49953125 14.51015625 -19.7265625 14.2578125 C-12.11508972 11.47780355 -7.38347325 8.02213459 -1.9609375 2.01171875 C-1.31382812 1.34785156 -0.66671875 0.68398437 0 0 Z " fill="#E64074" transform="translate(279,195)"/>
<path d="M0 0 C0.33 0.66 0.66 1.32 1 2 C0.1646875 1.87818359 0.1646875 1.87818359 -0.6875 1.75390625 C-4.48648962 1.43946285 -7.03287922 1.3765262 -10.30859375 3.48828125 C-12.30112413 5.25413845 -14.17345027 7.06394489 -16 9 C-16.66 9.66 -17.32 10.32 -18 11 C-18.46396693 13.89223503 -18.46396693 13.89223503 -18.625 17.125 C-18.69976562 18.22070312 -18.77453125 19.31640625 -18.8515625 20.4453125 C-18.90054687 21.28835937 -18.94953125 22.13140625 -19 23 C-21.62469534 20.37530466 -21.42000699 18.97594933 -21.5625 15.3125 C-21.496103 10.70344193 -21.05720281 8.21140093 -17.8125 4.875 C-11.99642736 0.10373083 -7.3234733 -0.28719503 0 0 Z " fill="#A9224D" transform="translate(314,84)"/>
<path d="M0 0 C0.33 0 0.66 0 1 0 C1 1.65 1 3.3 1 5 C-1.64 5 -4.28 5 -7 5 C-7 5.99 -7 6.98 -7 8 C-6.01 8 -5.02 8 -4 8 C-4 8.99 -4 9.98 -4 11 C-5.99954746 11.04254356 -8.00041636 11.04080783 -10 11 C-11 10 -11 10 -11.1328125 8.1875 C-11.13023437 7.465625 -11.12765625 6.74375 -11.125 6 C-11.12757813 5.278125 -11.13015625 4.55625 -11.1328125 3.8125 C-11 2 -11 2 -10 1 C-6.15402433 0.67950203 -3.49028148 1.40444275 0 3 C0 2.01 0 1.02 0 0 Z " fill="#3F0A1C" transform="translate(396,427)"/>
<path d="M0 0 C3.72754469 2.56786412 6.74478677 5.62473276 9.8125 8.9375 C10.4725 8.2775 11.1325 7.6175 11.8125 6.9375 C11.8125 10.2375 11.8125 13.5375 11.8125 16.9375 C10.50153987 14.97105981 9.20907522 12.99213452 7.9375 11 C4.53409487 6.0950926 1.43429653 3.14212609 -4.1875 0.9375 C-9.40175665 0.34720679 -13.21994462 1.51472295 -18.03125 3.26953125 C-20.80242122 4.1279919 -23.30929428 4.15890044 -26.1875 3.9375 C-26.1875 3.6075 -26.1875 3.2775 -26.1875 2.9375 C-9.14169847 -3.04723282 -9.14169847 -3.04723282 0 0 Z " fill="#CD2158" transform="translate(226.1875,166.0625)"/>
<path d="M0 0 C0.66 0.99 1.32 1.98 2 3 C4.23289343 5.95318163 5.89663383 7.93108922 9 10 C9 11.32 9 12.64 9 14 C13.29 14.33 17.58 14.66 22 15 C22 15.33 22 15.66 22 16 C20.43789839 16.05459773 18.87522911 16.09306101 17.3125 16.125 C16.00732422 16.15980469 16.00732422 16.15980469 14.67578125 16.1953125 C9.25255243 15.79945638 6.1042605 13.49946494 2.1875 9.875 C1.39730469 9.15054688 0.60710937 8.42609375 -0.20703125 7.6796875 C-0.79871094 7.12539062 -1.39039063 6.57109375 -2 6 C-1.34 5.67 -0.68 5.34 0 5 C0 3.35 0 1.7 0 0 Z " fill="#CE3666" transform="translate(395,206)"/>
<path d="M0 0 C6.48980542 0.89075761 6.48980542 0.89075761 9.40698242 1.51538086 C12.06693006 2.01250882 14.59829451 2.20577814 17.30078125 2.31640625 C18.27724609 2.35830078 19.25371094 2.40019531 20.25976562 2.44335938 C21.77086914 2.50233398 21.77086914 2.50233398 23.3125 2.5625 C24.85260742 2.62727539 24.85260742 2.62727539 26.42382812 2.69335938 C28.94909569 2.79906825 31.47445562 2.90116468 34 3 C34 3.33 34 3.66 34 4 C28.39 4 22.78 4 17 4 C16.67 4.66 16.34 5.32 16 6 C15.46632813 5.855625 14.93265625 5.71125 14.3828125 5.5625 C8.49771237 4.09631589 3.04990224 3.77265503 -3 4 C-2.01 3.67 -1.02 3.34 0 3 C0 2.01 0 1.02 0 0 Z " fill="#E74176" transform="translate(367,234)"/>
<path d="M0 0 C2.85215646 4.27823469 2.61574826 7.97757144 2 13 C0.48559172 17.51338427 -1.00467589 20.33645059 -5 23 C-5.72382467 25.05925139 -5.72382467 25.05925139 -6 27 C-9.96 27.495 -9.96 27.495 -14 28 C-13.2575 27.4225 -12.515 26.845 -11.75 26.25 C-9.00801381 24.09340686 -9.00801381 24.09340686 -6.8125 21.75 C-5 20 -5 20 -3 20 C-1.28878246 15.47849025 -0.64776388 11.44382847 -0.375 6.625 C-0.30023438 5.37976563 -0.22546875 4.13453125 -0.1484375 2.8515625 C-0.09945313 1.91054687 -0.05046875 0.96953125 0 0 Z " fill="#B81E4F" transform="translate(329,89)"/>
<path d="M0 0 C-0.433125 0.8353125 -0.433125 0.8353125 -0.875 1.6875 C-2.0413253 4.08494645 -3.0339881 6.51596939 -4 9 C-5.24546405 6.50907189 -4.7767578 5.58919267 -4 3 C-4.99 3.66 -5.98 4.32 -7 5 C-7.969375 5.268125 -8.93875 5.53625 -9.9375 5.8125 C-13.58844625 7.22817303 -14.68725175 8.91633566 -17 12 C-19.25 13.3125 -19.25 13.3125 -21 14 C-18.40447199 7.84252398 -12.66935455 3.20876433 -6.6875 0.5 C-4 0 -4 0 0 0 Z " fill="#A82A50" transform="translate(318,209)"/>
<path d="M0 0 C0.66 0 1.32 0 2 0 C2.268125 1.051875 2.53625 2.10375 2.8125 3.1875 C4.46449723 8.49128058 5.84570478 11.5206584 10.6875 14.3125 C11.780625 14.869375 12.87375 15.42625 14 16 C11.20518026 17.39740987 9.96650138 16.92890447 7 16 C4.32421875 13.93359375 4.32421875 13.93359375 1.6875 11.4375 C0.80449219 10.61121094 -0.07851563 9.78492188 -0.98828125 8.93359375 C-1.65214844 8.29550781 -2.31601562 7.65742188 -3 7 C-2.01 6.67 -1.02 6.34 0 6 C0 4.02 0 2.04 0 0 Z " fill="#C53C67" transform="translate(298,138)"/>
<path d="M0 0 C0 0.33 0 0.66 0 1 C-1.794375 1.309375 -1.794375 1.309375 -3.625 1.625 C-7.51078306 2.6483023 -10.2021671 3.9719374 -12.9453125 6.9375 C-15.15962193 11.2677051 -14.41222548 16.28230842 -14 21 C-16.068385 19.31118565 -16.92067819 18.38404974 -17.46875 15.73046875 C-17.56354009 8.01692511 -17.56354009 8.01692511 -14.75 4.5 C-9.67122311 -0.1170699 -6.7154985 -0.22384995 0 0 Z " fill="#62112B" transform="translate(415,188)"/>
<path d="M0 0 C4.62 0 9.24 0 14 0 C14 0.66 14 1.32 14 2 C12.35 2.33 10.7 2.66 9 3 C8.67 7.29 8.34 11.58 8 16 C7.34 16 6.68 16 6 16 C6 11.38 6 6.76 6 2 C4.02 2 2.04 2 0 2 C0 1.34 0 0.68 0 0 Z " fill="#F63479" transform="translate(220,425)"/>
<path d="M0 0 C0.66 0 1.32 0 2 0 C2 5.61 2 11.22 2 17 C1.01 17 0.02 17 -1 17 C-3.10770759 14.11165997 -4 12.61537605 -4 9 C-2.68 9 -1.36 9 0 9 C0 6.03 0 3.06 0 0 Z " fill="#F23477" transform="translate(336,425)"/>
<path d="M0 0 C0.66 0 1.32 0 2 0 C2.33 12.21 2.66 24.42 3 37 C-0.26498863 32.64668183 -0.40593497 30.50632325 -0.29296875 25.390625 C-0.28872391 24.66381531 -0.28447906 23.93700562 -0.28010559 23.18817139 C-0.2633613 20.87506496 -0.22571885 18.56284145 -0.1875 16.25 C-0.17244758 14.67839803 -0.15876015 13.10678236 -0.14648438 11.53515625 C-0.11347195 7.68976585 -0.06172056 3.84503244 0 0 Z " fill="#AA3358" transform="translate(388,171)"/>
<path d="M0 0 C0.66 0.33 1.32 0.66 2 1 C0.90033225 2.29549899 -0.20491801 3.58626071 -1.3125 4.875 C-1.92738281 5.59429687 -2.54226563 6.31359375 -3.17578125 7.0546875 C-5 9 -5 9 -8 11 C-10.39317655 17.11589563 -10.59406917 23.49442434 -11 30 C-11.33 30 -11.66 30 -12 30 C-12.38206297 20.71728494 -12.54342731 13.2559574 -6.5625 5.6875 C-4.46519632 3.48788883 -2.51891048 1.67927366 0 0 Z " fill="#AA4865" transform="translate(303,356)"/>
<path d="M0 0 C0.99 0.33 1.98 0.66 3 1 C4.1875 4.0625 4.1875 4.0625 5 7 C6.32 7 7.64 7 9 7 C8.67 8.65 8.34 10.3 8 12 C6.35 12 4.7 12 3 12 C0.58314288 7.77050005 -0.34833144 4.87664009 0 0 Z " fill="#F63579" transform="translate(140,429)"/>
<path d="M0 0 C3.58794576 4.0328889 3.37052181 7.09382688 3.23828125 12.29296875 C2.96252327 15.42576026 2.24800334 18.11399228 1 21 C0.67 19.68 0.34 18.36 0 17 C-0.66 17.33 -1.32 17.66 -2 18 C-1.84660156 17.48953125 -1.69320313 16.9790625 -1.53515625 16.453125 C-0.83094597 13.2250662 -0.65111796 10.04581999 -0.4375 6.75 C-0.35371094 5.48671875 -0.26992188 4.2234375 -0.18359375 2.921875 C-0.12300781 1.95765625 -0.06242187 0.9934375 0 0 Z " fill="#E64377" transform="translate(270,150)"/>
<path d="M0 0 C4.76890359 5.41920862 5.27803511 11.76925722 5.25 18.75 C5.25773437 20.69132812 5.25773437 20.69132812 5.265625 22.671875 C5 26 5 26 3 29 C2.95101563 27.865625 2.90203125 26.73125 2.8515625 25.5625 C2.7764586 24.04164602 2.70091416 22.52081375 2.625 21 C2.5940625 20.25621094 2.563125 19.51242188 2.53125 18.74609375 C2.33209092 14.9288781 1.93469029 11.39016493 0.9609375 7.6875 C0 4 0 4 0 0 Z " fill="#B32B57" transform="translate(364,101)"/>
<path d="M0 0 C0 3 0 3 -0.98828125 5.1875 C-2.29305444 8.81466872 -2.25409826 12.20039417 -2.1875 16 C-2.18685547 16.69867188 -2.18621094 17.39734375 -2.18554688 18.1171875 C-2.15374756 21.86244 -1.8889305 25.35894067 -1 29 C-3 28 -3 28 -4.09765625 25.40234375 C-5.82169915 18.90173178 -6.65892948 10.74559688 -3.87890625 4.46875 C-2.5 2.5625 -2.5 2.5625 0 0 Z " fill="#A3274E" transform="translate(340,270)"/>
<path d="M0 0 C0.66 0.33 1.32 0.66 2 1 C1.0479279 2.00596297 0.08812654 3.00461563 -0.875 4 C-1.40867188 4.556875 -1.94234375 5.11375 -2.4921875 5.6875 C-4 7 -4 7 -6 7 C-5.67373505 13.32278971 -5.38495108 18.55464391 -2 24 C-4.39963235 23.04014706 -5.73659972 22.42698572 -7.11328125 20.1953125 C-9.0658568 15.36118273 -8.51013084 10.44984554 -6.8125 5.625 C-4.81010146 2.72497452 -3.21994092 1.40356399 0 0 Z " fill="#791736" transform="translate(252,246)"/>
<path d="M0 0 C2.64 0 5.28 0 8 0 C7.6875 3.375 7.6875 3.375 7 7 C6.01 7.66 5.02 8.32 4 9 C4 8.34 4 7.68 4 7 C1.69 7 -0.62 7 -3 7 C-3 6.67 -3 6.34 -3 6 C-1.02 6 0.96 6 3 6 C3 5.01 3 4.02 3 3 C2.01 3 1.02 3 0 3 C0 2.01 0 1.02 0 0 Z " fill="#D02C66" transform="translate(389,432)"/>
<path d="M0 0 C1.2065625 0.0309375 1.2065625 0.0309375 2.4375 0.0625 C1.82607603 7.52187249 1.82607603 7.52187249 0 10.0625 C-1.5625 11.0625 -1.5625 11.0625 -3.5625 11.0625 C-3.58938151 9.41675434 -3.60884123 7.77088587 -3.625 6.125 C-3.63660156 5.20847656 -3.64820313 4.29195313 -3.66015625 3.34765625 C-3.52086326 0.08820018 -3.27895972 0.07997463 0 0 Z " fill="#CD2B64" transform="translate(151.5625,423.9375)"/>
<path d="M0 0 C1.98 0 3.96 0 6 0 C6 2.31 6 4.62 6 7 C4.68 6.67 3.36 6.34 2 6 C1.67 7.65 1.34 9.3 1 11 C0.67 9.68 0.34 8.36 0 7 C-0.66 7 -1.32 7 -2 7 C-1.34 4.69 -0.68 2.38 0 0 Z " fill="#E83172" transform="translate(300,424)"/>
<path d="M0 0 C1.98 0 3.96 0 6 0 C5.17886719 0.44214844 4.35773438 0.88429687 3.51171875 1.33984375 C0.17945705 4.86903538 0.53013737 6.9774611 0.65820312 11.66992188 C0.70912109 12.62447266 0.76003906 13.57902344 0.8125 14.5625 C0.89031068 16.45929486 0.95969585 18.35645929 1.01953125 20.25390625 C1.06182861 21.09252197 1.10412598 21.9311377 1.14770508 22.79516602 C1 25 1 25 -1 28 C-1.02898097 23.89584811 -1.0467922 19.79172247 -1.0625 15.6875 C-1.07087891 14.52025391 -1.07925781 13.35300781 -1.08789062 12.15039062 C-1.09111328 11.03212891 -1.09433594 9.91386719 -1.09765625 8.76171875 C-1.10289307 7.73006592 -1.10812988 6.69841309 -1.11352539 5.63549805 C-1 3 -1 3 0 0 Z " fill="#450B1E" transform="translate(376,161)"/>
<path d="M0 0 C2.475 0.495 2.475 0.495 5 1 C5 2.65 5 4.3 5 6 C4.01 6.495 4.01 6.495 3 7 C2.53348793 9.12576782 2.53348793 9.12576782 2.375 11.5625 C2.30023438 12.38878906 2.22546875 13.21507812 2.1484375 14.06640625 C2.09945313 14.70449219 2.05046875 15.34257812 2 16 C1.34 16 0.68 16 0 16 C0 10.72 0 5.44 0 0 Z " fill="#F33478" transform="translate(325,425)"/>
<path d="M0 0 C0.66 0 1.32 0 2 0 C2 5.28 2 10.56 2 16 C0.68 16 -0.64 16 -2 16 C-2.33 14.02 -2.66 12.04 -3 10 C-2.34 9.67 -1.68 9.34 -1 9 C-0.53348793 6.87423218 -0.53348793 6.87423218 -0.375 4.4375 C-0.30023438 3.61121094 -0.22546875 2.78492188 -0.1484375 1.93359375 C-0.09945313 1.29550781 -0.05046875 0.65742188 0 0 Z " fill="#F73579" transform="translate(505,425)"/>
<path d="M0 0 C1.32 0 2.64 0 4 0 C4 5.28 4 10.56 4 16 C3.34 16 2.68 16 2 16 C2 12.7 2 9.4 2 6 C1.01 6 0.02 6 -1 6 C-1.042721 4.33388095 -1.04063832 2.66617115 -1 1 C-0.67 0.67 -0.34 0.34 0 0 Z " fill="#F8357A" transform="translate(277,425)"/>
<path d="M0 0 C0.33 0 0.66 0 1 0 C1.46337839 7.51702729 0.9718641 14.35068481 -0.875 21.625 C-1.04870117 22.31142578 -1.22240234 22.99785156 -1.40136719 23.70507812 C-2.26569102 26.90994618 -3.14116347 29.21174521 -5 32 C-4.85957123 30.35369672 -4.71250671 28.70795821 -4.5625 27.0625 C-4.48128906 26.14597656 -4.40007812 25.22945312 -4.31640625 24.28515625 C-4 22 -4 22 -3 21 C-2.79160985 19.35892758 -2.63248275 17.71143707 -2.5 16.0625 C-2.10977702 11.21955403 -2.10977702 11.21955403 -1 9 C-0.77532169 7.46331135 -0.59203195 5.92031946 -0.4375 4.375 C-0.35371094 3.55773437 -0.26992188 2.74046875 -0.18359375 1.8984375 C-0.12300781 1.27195312 -0.06242187 0.64546875 0 0 Z " fill="#691B33" transform="translate(379,125)"/>
<path d="M0 0 C1.65 0 3.3 0 5 0 C5 5.94 5 11.88 5 18 C3.68 17.67 2.36 17.34 1 17 C1.99 17 2.98 17 4 17 C4 11.72 4 6.44 4 1 C3.34 1 2.68 1 2 1 C2 3.97 2 6.94 2 10 C0.68 9.67 -0.64 9.34 -2 9 C-1.34 6.03 -0.68 3.06 0 0 Z " fill="#B22557" transform="translate(503,424)"/>
<path d="M0 0 C1.32 0 2.64 0 4 0 C4.33 1.98 4.66 3.96 5 6 C4.01 6 3.02 6 2 6 C2 9.3 2 12.6 2 16 C1.34 16 0.68 16 0 16 C0 10.72 0 5.44 0 0 Z " fill="#FB367C" transform="translate(263,425)"/>
<path d="M0 0 C0.66 0 1.32 0 2 0 C2 5.28 2 10.56 2 16 C0.68 15.67 -0.64 15.34 -2 15 C-2.33 13.35 -2.66 11.7 -3 10 C-2.01 10 -1.02 10 0 10 C0 6.7 0 3.4 0 0 Z " fill="#F8357A" transform="translate(204,425)"/>
<path d="M0 0 C1.125 3.75 1.125 3.75 0 6 C0.99 6 1.98 6 3 6 C3 9.3 3 12.6 3 16 C2.67 16 2.34 16 2 16 C1.67 14.02 1.34 12.04 1 10 C0.34 11.65 -0.32 13.3 -1 15 C-2 12 -2 12 -1 9 C-2.32 9 -3.64 9 -5 9 C-4.67 8.34 -4.34 7.68 -4 7 C-3.34 7.33 -2.68 7.66 -2 8 C-1.7834375 6.576875 -1.7834375 6.576875 -1.5625 5.125 C-1 2 -1 2 0 0 Z " fill="#B32557" transform="translate(448,426)"/>
<path d="M0 0 C1.98 0 3.96 0 6 0 C6.66 2.31 7.32 4.62 8 7 C7.34 6.67 6.68 6.34 6 6 C5.67 7.98 5.34 9.96 5 12 C3.68 12 2.36 12 1 12 C1.33 9.36 1.66 6.72 2 4 C2.99 4 3.98 4 5 4 C5 3.01 5 2.02 5 1 C3.35 1 1.7 1 0 1 C0 0.67 0 0.34 0 0 Z " fill="#CD2B64" transform="translate(357,424)"/>
<path d="M0 0 C0.99 0 1.98 0 3 0 C3.66 1.98 4.32 3.96 5 6 C4.01 6.495 4.01 6.495 3 7 C2.53348793 9.12576782 2.53348793 9.12576782 2.375 11.5625 C2.30023438 12.38878906 2.22546875 13.21507812 2.1484375 14.06640625 C2.09945312 14.70449219 2.05046875 15.34257812 2 16 C1.34 16 0.68 16 0 16 C0 10.72 0 5.44 0 0 Z " fill="#FB367C" transform="translate(193,425)"/>
<path d="M0 0 C0.66 0.33 1.32 0.66 2 1 C-3.20704182 7.0989888 -8.31851737 12.52140401 -15 17 C-13.67879172 14.06769807 -12.25361803 12.01335101 -9.9609375 9.765625 C-9.38085938 9.19199219 -8.80078125 8.61835938 -8.203125 8.02734375 C-7.59984375 7.44082031 -6.9965625 6.85429687 -6.375 6.25 C-5.76398438 5.64800781 -5.15296875 5.04601562 -4.5234375 4.42578125 C-3.02011376 2.94594695 -1.51065144 1.47235324 0 0 Z " fill="#551227" transform="translate(249,220)"/>
<path d="M0 0 C2.45823172 3.68734758 3.01242616 6.69699971 4 11 C2 10 2 10 1 7 C0.01 8.485 0.01 8.485 -1 10 C-2.32 10 -3.64 10 -5 10 C-4.67 8.02 -4.34 6.04 -4 4 C-3.01 4 -2.02 4 -1 4 C-0.67 2.68 -0.34 1.36 0 0 Z " fill="#D12C66" transform="translate(306,426)"/>
<path d="M0 0 C2.31 0 4.62 0 7 0 C7 0.66 7 1.32 7 2 C5.35 2 3.7 2 2 2 C2 5.63 2 9.26 2 13 C3.65 13 5.3 13 7 13 C7 13.33 7 13.66 7 14 C5.00045254 14.04254356 2.99958364 14.04080783 1 14 C0 13 0 13 -0.09765625 10.05859375 C-0.08605469 8.86363281 -0.07445312 7.66867187 -0.0625 6.4375 C-0.05347656 5.23996094 -0.04445312 4.04242188 -0.03515625 2.80859375 C-0.02355469 1.88175781 -0.01195312 0.95492188 0 0 Z " fill="#69283C" transform="translate(233,364)"/>
<path d="M0 0 C1.20767624 2.41535248 0.97793036 3.47846408 0.66015625 6.1328125 C0.56669922 6.93847656 0.47324219 7.74414062 0.37695312 8.57421875 C0.27318359 9.41597656 0.16941406 10.25773438 0.0625 11.125 C-0.03740234 11.97449219 -0.13730469 12.82398438 -0.24023438 13.69921875 C-0.48809384 15.80012277 -0.74335185 17.90015149 -1 20 C-1.66 20 -2.32 20 -3 20 C-3.08112454 17.41603321 -3.14054748 14.83462432 -3.1875 12.25 C-3.21263672 11.52039063 -3.23777344 10.79078125 -3.26367188 10.0390625 C-3.30981636 6.65513396 -3.25324128 4.42141443 -1.48828125 1.484375 C-0.75158203 0.74960938 -0.75158203 0.74960938 0 0 Z " fill="#98173F" transform="translate(296,225)"/>
<path d="M0 0 C0.95638118 2.58222918 1.14112843 3.66129178 0.0625 6.25 C-1.38959195 10.00835564 -1.1299116 12.97274051 -1 17 C-1 17.99 -1 18.98 -1 20 C-3.67098639 16.43868482 -4.51574891 13.54611332 -4.37109375 9.0703125 C-3.73268968 5.50868978 -1.99319921 2.98979882 0 0 Z " fill="#83183A" transform="translate(220,219)"/>
<path d="M0 0 C2.83582815 2.83582815 2.36710656 4.85804476 2.4375 8.8125 C2.34959562 16.61201585 2.34959562 16.61201585 -0.375 19.3125 C-3 21 -3 21 -5 22 C-5.66 21.34 -6.32 20.68 -7 20 C-6.01 19.67 -5.02 19.34 -4 19 C-2.98812105 17.34051852 -1.9873454 15.67419438 -1 14 C-0.34 14 0.32 14 1 14 C0.67 9.38 0.34 4.76 0 0 Z " fill="#A61C48" transform="translate(359,114)"/>
<path d="M0 0 C0 0.33 0 0.66 0 1 C-2.31 1 -4.62 1 -7 1 C-6.814375 1.515625 -6.62875 2.03125 -6.4375 2.5625 C-5.84580483 5.85908739 -6.432733 8.72245735 -7 12 C-7.33 12 -7.66 12 -8 12 C-8.33 10.02 -8.66 8.04 -9 6 C-9.66 7.98 -10.32 9.96 -11 12 C-11.33 12 -11.66 12 -12 12 C-11.91253716 10.56138706 -11.80434652 9.12402492 -11.6875 7.6875 C-11.62949219 6.88699219 -11.57148438 6.08648437 -11.51171875 5.26171875 C-10.05791642 -1.1638656 -5.47657526 -0.26933977 0 0 Z " fill="#BC275B" transform="translate(392,424)"/>
<path d="M0 0 C0.33 0 0.66 0 1 0 C1 1.65 1 3.3 1 5 C3.97 5 6.94 5 10 5 C10 5.99 10 6.98 10 8 C6.37 8 2.74 8 -1 8 C-0.67 5.36 -0.34 2.72 0 0 Z " fill="#EE3275" transform="translate(411,434)"/>
<path d="M0 0 C0.66 0 1.32 0 2 0 C2 0.99 2 1.98 2 3 C3.32 3 4.64 3 6 3 C5.67 5.31 5.34 7.62 5 10 C4.01 10 3.02 10 2 10 C0.68373308 6.38026598 0 3.90432869 0 0 Z " fill="#E83172" transform="translate(441,432)"/>
<path d="M0 0 C1.32 0 2.64 0 4 0 C4 5.28 4 10.56 4 16 C3.67 16 3.34 16 3 16 C3 12.7 3 9.4 3 6 C1.68 6.33 0.36 6.66 -1 7 C-0.67 4.69 -0.34 2.38 0 0 Z " fill="#FA357B" transform="translate(449,425)"/>
<path d="M0 0 C2.04119788 1.61594832 4.04072937 3.2856382 6 5 C6 5.66 6 6.32 6 7 C-5.385 6.505 -5.385 6.505 -17 6 C-17 5.67 -17 5.34 -17 5 C-10.73 4.67 -4.46 4.34 2 4 C1.34 2.68 0.68 1.36 0 0 Z " fill="#7D233E" transform="translate(314,193)"/>
<path d="M0 0 C1.98 0.66 3.96 1.32 6 2 C7.03038433 5.9414002 6.87693282 8.83615152 6.0625 12.8125 C5.86785156 13.78832031 5.67320312 14.76414063 5.47265625 15.76953125 C5.23869141 16.87361328 5.23869141 16.87361328 5 18 C4.34 18 3.68 18 3 18 C3.165 17.505 3.33 17.01 3.5 16.5 C4.39442828 12.02785862 4.8734525 6.25784658 3 2 C2.01 1.67 1.02 1.34 0 1 C0 0.67 0 0.34 0 0 Z " fill="#C82055" transform="translate(261,147)"/>
<path d="M0 0 C1.134375 0.020625 2.26875 0.04125 3.4375 0.0625 C2.86 0.31 2.2825 0.5575 1.6875 0.8125 C-1.6432585 2.66292139 -3.99098511 4.38648443 -5.2578125 8.1015625 C-5.75277395 10.07443699 -6.16359667 12.06798334 -6.5625 14.0625 C-6.8925 14.0625 -7.2225 14.0625 -7.5625 14.0625 C-7.83627394 8.67827922 -7.93785297 5.51796592 -4.5625 1.0625 C-3.5625 0.0625 -3.5625 0.0625 0 0 Z " fill="#C32E5D" transform="translate(387.5625,115.9375)"/>
<path d="M0 0 C0.103125 0.639375 0.20625 1.27875 0.3125 1.9375 C0.539375 2.618125 0.76625 3.29875 1 4 C1.99 4.33 2.98 4.66 4 5 C3.67 6.65 3.34 8.3 3 10 C2.01 10 1.02 10 0 10 C-0.33 9.01 -0.66 8.02 -1 7 C-1.99 7 -2.98 7 -4 7 C-4 6.34 -4 5.68 -4 5 C-3.34 5 -2.68 5 -2 5 C-1.34 3.35 -0.68 1.7 0 0 Z " fill="#A92252" transform="translate(275,427)"/>
<path d="M0 0 C0.66 0.33 1.32 0.66 2 1 C1.21625 1.5775 0.4325 2.155 -0.375 2.75 C-4.47067698 6.72965214 -4.42271952 12.59768863 -5 18 C-7 16 -7 16 -7.5625 12.375 C-7.499017 7.42332577 -4.84708262 4.88984715 -1.53125 1.46875 C-0.77328125 0.74171875 -0.77328125 0.74171875 0 0 Z " fill="#63102A" transform="translate(210,175)"/>
<path d="M0 0 C0.66 0.33 1.32 0.66 2 1 C-2.28565853 6.09057916 -6.19579645 10.66258296 -12 14 C-10.41332422 10.09714233 -7.86649519 7.66479018 -4.875 4.75 C-3.96492187 3.85796875 -3.05484375 2.9659375 -2.1171875 2.046875 C-1.41851562 1.37140625 -0.71984375 0.6959375 0 0 Z " fill="#B71D4E" transform="translate(212,144)"/>
<path d="M0 0 C1.98 0 3.96 0 6 0 C6.33 1.32 6.66 2.64 7 4 C8.65 4 10.3 4 12 4 C11.67 2.68 11.34 1.36 11 0 C11.66 0.33 12.32 0.66 13 1 C13 2.32 13 3.64 13 5 C10.69 5 8.38 5 6 5 C5.67 4.34 5.34 3.68 5 3 C3.02 3.33 1.04 3.66 -1 4 C-0.67 2.68 -0.34 1.36 0 0 Z " fill="#4F0E24" transform="translate(357,438)"/>
<path d="M0 0 C2.10827055 3.16240582 2.33817465 4.50657469 2.625 8.1875 C2.69976562 9.08855469 2.77453125 9.98960937 2.8515625 10.91796875 C2.90054687 11.60503906 2.94953125 12.29210937 3 13 C2.54625 12.34 2.0925 11.68 1.625 11 C1.08875 10.34 0.5525 9.68 0 9 C-0.66 9 -1.32 9 -2 9 C-2.20140476 5.37471432 -1.85776765 3.13498292 0 0 Z " fill="#B6335C" transform="translate(311,262)"/>
<path d="M0 0 C0.33 0.99 0.66 1.98 1 3 C0.34 3 -0.32 3 -1 3 C-1 2.34 -1 1.68 -1 1 C-4.60513403 3.06007659 -7.80331012 5.3513141 -11 8 C-10.8125 5.6875 -10.8125 5.6875 -10 3 C-6.66753954 0.31551796 -4.23795734 -0.36325349 0 0 Z " fill="#C31F53" transform="translate(451,160)"/>
<path d="M0 0 C1 4 1 4 0 7 C0.99 7 1.98 7 3 7 C2.67 8.32 2.34 9.64 2 11 C0.35 11 -1.3 11 -3 11 C-2.01 7.37 -1.02 3.74 0 0 Z " fill="#C52960" transform="translate(297,431)"/>
<path d="M0 0 C4.02992782 0.55312735 8.02022924 1.1558062 12 2 C8.47320901 4.35119399 6.97120515 4.21443452 2.8125 4.125 C1.72582031 4.10695312 0.63914062 4.08890625 -0.48046875 4.0703125 C-1.72763672 4.03550781 -1.72763672 4.03550781 -3 4 C-2.01 3.67 -1.02 3.34 0 3 C0 2.01 0 1.02 0 0 Z " fill="#D23C6B" transform="translate(367,234)"/>
<path d="M0 0 C4 2 4 2 5 4 C4.34 4 3.68 4 3 4 C3.33 5.98 3.66 7.96 4 10 C3.01 9.67 2.02 9.34 1 9 C0.67 6.03 0.34 3.06 0 0 Z " fill="#D03C6A" transform="translate(327,215)"/>
<path d="M0 0 C-1.62249941 0.83819158 -3.24808497 1.6704116 -4.875 2.5 C-5.77992188 2.9640625 -6.68484375 3.428125 -7.6171875 3.90625 C-10 5 -10 5 -12 5 C-12 4.34 -12 3.68 -12 3 C-12.66 2.67 -13.32 2.34 -14 2 C-12.42085985 1.46658816 -10.83645613 0.94874237 -9.25 0.4375 C-8.36828125 0.14746094 -7.4865625 -0.14257812 -6.578125 -0.44140625 C-3.92165684 -1.01697435 -2.52968894 -0.89248371 0 0 Z " fill="#D53F6F" transform="translate(271,208)"/>
<path d="M0 0 C0.99 0 1.98 0 3 0 C3.33 0.99 3.66 1.98 4 3 C3.34 3 2.68 3 2 3 C2 6.3 2 9.6 2 13 C0 11 0 11 -0.1953125 8.3984375 C-0.17210937 7.40070313 -0.14890625 6.40296875 -0.125 5.375 C-0.10695313 4.37210938 -0.08890625 3.36921875 -0.0703125 2.3359375 C-0.04710937 1.56507813 -0.02390625 0.79421875 0 0 Z " fill="#711330" transform="translate(325,212)"/>
<path d="M0 0 C0.66 0 1.32 0 2 0 C2.66 2.97 3.32 5.94 4 9 C5.32 9.33 6.64 9.66 8 10 C6.35 10 4.7 10 3 10 C3 9.01 3 8.02 3 7 C2.34 7 1.68 7 1 7 C0.67 7.66 0.34 8.32 0 9 C0 6.03 0 3.06 0 0 Z " fill="#5A112A" transform="translate(266,433)"/>
<path d="M0 0 C6.6 0.66 13.2 1.32 20 2 C20 2.33 20 2.66 20 3 C17.22858283 3.08089542 14.45952181 3.14044062 11.6875 3.1875 C10.90181641 3.21263672 10.11613281 3.23777344 9.30664062 3.26367188 C8.54931641 3.27333984 7.79199219 3.28300781 7.01171875 3.29296875 C6.31522217 3.3086792 5.61872559 3.32438965 4.90112305 3.34057617 C3 3 3 3 0 0 Z " fill="#6F2B3F" transform="translate(306,405)"/>
<path d="M0 0 C1.65 0 3.3 0 5 0 C5 1.65 5 3.3 5 5 C4.34 5 3.68 5 3 5 C2.67 5.99 2.34 6.98 2 8 C0.74335022 5.09399739 0 3.20395416 0 0 Z " fill="#D02C66" transform="translate(137,424)"/>
<path d="M0 0 C3.3 0 6.6 0 10 0 C10 0.66 10 1.32 10 2 C8.72125 2.0825 7.4425 2.165 6.125 2.25 C3.94666582 2.45869931 3.94666582 2.45869931 2 3 C0.4100567 4.92064793 0.4100567 4.92064793 0 7 C0 4.69 0 2.38 0 0 Z " fill="#F63479" transform="translate(411,425)"/>
<path d="M0 0 C3.3 0 6.6 0 10 0 C10 0.66 10 1.32 10 2 C8.72125 2.0825 7.4425 2.165 6.125 2.25 C3.94666582 2.45869931 3.94666582 2.45869931 2 3 C0.4100567 4.92064793 0.4100567 4.92064793 0 7 C0 4.69 0 2.38 0 0 Z " fill="#F7357A" transform="translate(168,425)"/>
<path d="M0 0 C0.33 0 0.66 0 1 0 C1.33 4.29 1.66 8.58 2 13 C1.34 12.67 0.68 12.34 0 12 C0 10.68 0 9.36 0 8 C-0.66 8 -1.32 8 -2 8 C-1.125 1.125 -1.125 1.125 0 0 Z " fill="#E72764" transform="translate(341,279)"/>
<path d="M0 0 C1.44010481 0.25662245 2.8770687 0.53090821 4.3125 0.8125 C5.11300781 0.96332031 5.91351563 1.11414063 6.73828125 1.26953125 C9.23445587 2.07572236 10.32422106 3.02052002 12 5 C9.69 4.34 7.38 3.68 5 3 C4.34 3.66 3.68 4.32 3 5 C1.5 3.625 1.5 3.625 0 2 C0 1.34 0 0.68 0 0 Z " fill="#E04978" transform="translate(307,154)"/>
<path d="M0 0 C3.31012244 3.31012244 3.50351065 4.53159589 4 9 C2.68 9 1.36 9 0 9 C0 6.03 0 3.06 0 0 Z " fill="#551028" transform="translate(439,433)"/>
<path d="M0 0 C0.66 0 1.32 0 2 0 C3.625 2 3.625 2 5 4 C4.67 4.66 4.34 5.32 4 6 C3.34 5.67 2.68 5.34 2 5 C2 6.32 2 7.64 2 9 C1.34 9 0.68 9 0 9 C0 6.03 0 3.06 0 0 Z " fill="#571028" transform="translate(497,433)"/>
<path d="M0 0 C0.66 0 1.32 0 2 0 C2.33 1.98 2.66 3.96 3 6 C4.65 6 6.3 6 8 6 C8 6.33 8 6.66 8 7 C5.03 7 2.06 7 -1 7 C-0.67 4.69 -0.34 2.38 0 0 Z " fill="#F33478" transform="translate(298,431)"/>
<path d="M0 0 C1.60080151 4.00200378 0.29279692 7.04556236 -1 11 C-2.32 10.67 -3.64 10.34 -5 10 C-5 9.34 -5 8.68 -5 8 C-4.34 8 -3.68 8 -3 8 C-2.87625 7.236875 -2.7525 6.47375 -2.625 5.6875 C-2 3 -2 3 0 0 Z " fill="#AE365B" transform="translate(370,165)"/>
<path d="M0 0 C1.99097846 2.98646769 2.94124926 5.59687262 4 9 C3.34 9 2.68 9 2 9 C1.67 9.99 1.34 10.98 1 12 C1 10.68 1 9.36 1 8 C0.01 8 -0.98 8 -2 8 C-2 7.34 -2 6.68 -2 6 C-1.01 6 -0.02 6 1 6 C0.67 4.02 0.34 2.04 0 0 Z " fill="#D42D68" transform="translate(267,425)"/>
<path d="M0 0 C2.0625 1.5625 2.0625 1.5625 4 4 C3.75 7.75 3.75 7.75 3 11 C1 10 1 10 0 7 C-0.03954234 4.66700175 -0.04401732 2.33291811 0 0 Z " fill="#A61A45" transform="translate(327,221)"/>
<path d="M0 0 C0.33 0 0.66 0 1 0 C1 4.29 1 8.58 1 13 C0.01 13.495 0.01 13.495 -1 14 C-1 12.68 -1 11.36 -1 10 C-1.99 10.495 -1.99 10.495 -3 11 C-2.690625 10.29875 -2.38125 9.5975 -2.0625 8.875 C-0.96697322 5.91063343 -0.43577008 3.12301892 0 0 Z " fill="#ED497D" transform="translate(271,157)"/>
<path d="M0 0 C0.66 0.33 1.32 0.66 2 1 C1.0919838 2.13199353 0.17316174 3.25532363 -0.75 4.375 C-1.26046875 5.00148437 -1.7709375 5.62796875 -2.296875 6.2734375 C-4.08199481 8.08312318 -5.67949644 9.00117455 -8 10 C-6.34908222 5.70761377 -3.26245434 3.1206085 0 0 Z " fill="#95173D" transform="translate(305,213)"/>
<path d="M0 0 C0.66 0.33 1.32 0.66 2 1 C1.0919838 2.13199353 0.17316174 3.25532363 -0.75 4.375 C-1.26046875 5.00148437 -1.7709375 5.62796875 -2.296875 6.2734375 C-4.08199481 8.08312318 -5.67949644 9.00117455 -8 10 C-6.34908222 5.70761377 -3.26245434 3.1206085 0 0 Z " fill="#9F1842" transform="translate(276,188)"/>
<path d="M0 0 C0.66 0.33 1.32 0.66 2 1 C1 4 1 4 -0.875 5.1875 C-3 6 -3 6 -6 6 C-5 3 -5 3 -2.5625 1.25 C-1.716875 0.8375 -0.87125 0.425 0 0 Z " fill="#E84779" transform="translate(356,136)"/>
<path d="M0 0 C0.99 0.33 1.98 0.66 3 1 C3.33 2.65 3.66 4.3 4 6 C3.34 6 2.68 6 2 6 C1.67 6.99 1.34 7.98 1 9 C0.67 6.03 0.34 3.06 0 0 Z " fill="#E63171" transform="translate(140,429)"/>
<path d="M0 0 C0.66 0.33 1.32 0.66 2 1 C-0.31 3.64 -2.62 6.28 -5 9 C-5.33 8.01 -5.66 7.02 -6 6 C-4.02 4.02 -2.04 2.04 0 0 Z " fill="#C93866" transform="translate(347,263)"/>
<path d="M0 0 C0 1.65 0 3.3 0 5 C-0.99 5 -1.98 5 -3 5 C-5.15028304 5.94978897 -5.15028304 5.94978897 -7 7 C-5.52694611 2.33532934 -5.52694611 2.33532934 -2.9375 0.6875 C-1 0 -1 0 0 0 Z " fill="#BE4369" transform="translate(368,174)"/>
<path d="M0 0 C2.31 0 4.62 0 7 0 C7 0.99 7 1.98 7 3 C4.69 3 2.38 3 0 3 C0 2.01 0 1.02 0 0 Z " fill="#2D0613" transform="translate(172,428)"/>
<path d="M0 0 C0.8971875 0.309375 0.8971875 0.309375 1.8125 0.625 C1.4825 1.285 1.1525 1.945 0.8125 2.625 C-0.8375 2.625 -2.4875 2.625 -4.1875 2.625 C-4.5175 3.615 -4.8475 4.605 -5.1875 5.625 C-5.8475 5.625 -6.5075 5.625 -7.1875 5.625 C-5.69046729 2.17030914 -4.27938051 -0.73360809 0 0 Z " fill="#E62864" transform="translate(256.1875,242.375)"/>
<path d="M0 0 C0.66 0.33 1.32 0.66 2 1 C3.99960012 1.039992 6.00047242 1.04346799 8 1 C8 1.33 8 1.66 8 2 C6.576875 2.37125 6.576875 2.37125 5.125 2.75 C1.91306809 3.6857077 1.91306809 3.6857077 0.625 6.125 C0.41875 6.74375 0.2125 7.3625 0 8 C-1.125 6.25 -1.125 6.25 -2 4 C-1.125 1.75 -1.125 1.75 0 0 Z " fill="#C73F6A" transform="translate(373,159)"/>
<path d="M0 0 C0.66 0 1.32 0 2 0 C2.33 1.98 2.66 3.96 3 6 C1.68 6 0.36 6 -1 6 C-0.67 4.02 -0.34 2.04 0 0 Z " fill="#821A3E" transform="translate(359,430)"/>
<path d="M0 0 C0.66 0 1.32 0 2 0 C2.33 1.98 2.66 3.96 3 6 C1.68 6 0.36 6 -1 6 C-0.67 4.02 -0.34 2.04 0 0 Z " fill="#821A3E" transform="translate(302,430)"/>
<path d="M0 0 C1.98 0 3.96 0 6 0 C6 0.99 6 1.98 6 3 C3.69 3 1.38 3 -1 3 C-0.67 2.01 -0.34 1.02 0 0 Z " fill="#D92E6B" transform="translate(172,432)"/>
<path d="M0 0 C0.66 0.33 1.32 0.66 2 1 C1.3503125 1.5878125 1.3503125 1.5878125 0.6875 2.1875 C-1.26366224 4.28319278 -2.59010162 6.51589333 -4 9 C-5 6 -5 6 -4.25 3.375 C-3 1 -3 1 0 0 Z " fill="#EF3E76" transform="translate(342,272)"/>
<path d="M0 0 C0.66 0.33 1.32 0.66 2 1 C-2.625 6.875 -2.625 6.875 -6 8 C-4.55746343 4.63408134 -2.66735273 2.48952921 0 0 Z " fill="#B52855" transform="translate(244,242)"/>
<path d="M0 0 C0.66 0.33 1.32 0.66 2 1 C1.41196203 4.02419525 0.77321882 7.01758453 0 10 C-2.14915785 6.77626323 -2.38286803 5.73296326 -2 2 C-1.34 1.34 -0.68 0.68 0 0 Z " fill="#9B1842" transform="translate(321,72)"/>
<path d="M0 0 C1.98 0.99 1.98 0.99 4 2 C4 2.66 4 3.32 4 4 C3.01 4.495 3.01 4.495 2 5 C1.34 6.32 0.68 7.64 0 9 C0 6.03 0 3.06 0 0 Z " fill="#711636" transform="translate(196,433)"/>
<path d="M0 0 C0.350625 0.639375 0.70125 1.27875 1.0625 1.9375 C3.77184206 4.82163832 6.15858911 4.7100822 10 5 C10 5.33 10 5.66 10 6 C6.7 6 3.4 6 0 6 C0 4.02 0 2.04 0 0 Z " fill="#FC367C" transform="translate(168,435)"/>
<path d="M0 0 C1.65 0 3.3 0 5 0 C5 0.99 5 1.98 5 3 C4.01 3 3.02 3 2 3 C2 3.66 2 4.32 2 5 C1.34 5 0.68 5 0 5 C0 3.35 0 1.7 0 0 Z " fill="#F7357A" transform="translate(357,425)"/>
<path d="M0 0 C1 2 1 2 0.1875 5.5 C-1 9 -1 9 -3 11 C-2.53199289 6.94393835 -2.12046792 3.53411321 0 0 Z " fill="#BC1E51" transform="translate(451,184)"/>
<path d="M0 0 C0 0.66 0 1.32 0 2 C-1.53125 3.2890625 -1.53125 3.2890625 -3.5 4.625 C-4.1496875 5.07101563 -4.799375 5.51703125 -5.46875 5.9765625 C-5.9740625 6.31429687 -6.479375 6.65203125 -7 7 C-6.01695477 2.51137841 -4.96473025 0 0 0 Z " fill="#310714" transform="translate(326,107)"/>
<path d="M0 0 C0.33 0.99 0.66 1.98 1 3 C3.01508358 3.73323796 3.01508358 3.73323796 5 4 C4.34 4 3.68 4 3 4 C2.67 5.65 2.34 7.3 2 9 C1.67 7.68 1.34 6.36 1 5 C0.34 5 -0.32 5 -1 5 C-0.67 3.35 -0.34 1.7 0 0 Z " fill="#D52D68" transform="translate(299,426)"/>
<path d="M0 0 C0.33 0 0.66 0 1 0 C1 1.65 1 3.3 1 5 C-0.98 5.99 -0.98 5.99 -3 7 C-3 5.35 -3 3.7 -3 2 C-2.34 2 -1.68 2 -1 2 C-0.67 1.34 -0.34 0.68 0 0 Z " fill="#B43159" transform="translate(331,190)"/>
<path d="M0 0 C-0.33 0.99 -0.66 1.98 -1 3 C-3.64 3 -6.28 3 -9 3 C-6.38997624 -0.48003168 -4.1689578 -0.27793052 0 0 Z " fill="#E02F6E" transform="translate(393,439)"/>
</svg>
